<svg version="1.1" viewBox="0.0 0.0 960.0 720.0" fill="none" stroke="none" stroke-linecap="square" stroke-miterlimit="10" xmlns:xlink="http://www.w3.org/1999/xlink" xmlns="http://www.w3.org/2000/svg">
	<clipPath id="p.0">
		<path d="m0 0l960.0 0l0 720.0l-960.0 0l0 -720.0z" clip-rule="nonzero" />
	</clipPath>
	<g clip-path="url(#p.0)">
		<path fill="#000000" fill-opacity="0.0" d="m0 0l960.0 0l0 720.0l-960.0 0z" fill-rule="evenodd" />
		<path fill="#ff0000" d="m61.70341 53.272964l59.05512 0l0 36.220474l-59.05512 0z" fill-rule="evenodd" />
		<path stroke="#000000" stroke-width="1.0" stroke-linejoin="round" stroke-linecap="butt" d="m61.70341 53.272964l59.05512 0l0 36.220474l-59.05512 0z" fill-rule="evenodd" />
		<path fill="#ffff00" d="m95.62467 587.81366l23.90551 0l0 22.48816l-23.90551 0z" fill-rule="evenodd" />
		<path stroke="#000000" stroke-width="1.0" stroke-linejoin="round" stroke-linecap="butt" d="m95.62467 587.81366l23.90551 0l0 22.48816l-23.90551 0z" fill-rule="evenodd" />
		<path fill="#ff0000" d="m251.41208 159.61154l23.905518 0l0 22.48819l-23.905518 0z" fill-rule="evenodd" />
		<path stroke="#000000" stroke-width="1.0" stroke-linejoin="round" stroke-linecap="butt" d="m251.41208 159.61154l23.905518 0l0 22.48819l-23.905518 0z" fill-rule="evenodd" />
		<path fill="#ffff00" d="m708.4173 277.6378l23.905518 0l0 22.48819l-23.905518 0z" fill-rule="evenodd" />
		<path stroke="#000000" stroke-width="1.0" stroke-linejoin="round" stroke-linecap="butt" d="m708.4173 277.6378l23.905518 0l0 22.48819l-23.905518 0z" fill-rule="evenodd" />
		<path fill="#0000ff" d="m600.27295 60.139107l23.905518 0l0 22.48819l-23.905518 0z" fill-rule="evenodd" />
		<path stroke="#000000" stroke-width="1.0" stroke-linejoin="round" stroke-linecap="butt" d="m600.27295 60.139107l23.905518 0l0 22.48819l-23.905518 0z" fill-rule="evenodd" />
		<path fill="#000000" d="m835.2756 71.391075l23.905518 0l0 22.48819l-23.905518 0z" fill-rule="evenodd" />
		<path stroke="#000000" stroke-width="1.0" stroke-linejoin="round" stroke-linecap="butt" d="m835.2756 71.391075l23.905518 0l0 22.48819l-23.905518 0z" fill-rule="evenodd" />
		<path fill="#ff0000" d="m441.7979 565.32544l23.905487 0l0 22.48822l-23.905487 0z" fill-rule="evenodd" />
		<path stroke="#000000" stroke-width="1.0" stroke-linejoin="round" stroke-linecap="butt" d="m441.7979 565.32544l23.905487 0l0 22.48822l-23.905487 0z" fill-rule="evenodd" />
		<path fill="#0000ff" d="m835.2756 561.2336l23.905518 0l0 22.48822l-23.905518 0z" fill-rule="evenodd" />
		<path stroke="#000000" stroke-width="1.0" stroke-linejoin="round" stroke-linecap="butt" d="m835.2756 561.2336l23.905518 0l0 22.48822l-23.905518 0z" fill-rule="evenodd" />
		<path fill="#ffff00" d="m279.71915 66.91076l23.905518 0l0 22.48819l-23.905518 0z" fill-rule="evenodd" />
		<path stroke="#000000" stroke-width="1.0" stroke-linejoin="round" stroke-linecap="butt" d="m279.71915 66.91076l23.905518 0l0 22.48819l-23.905518 0z" fill-rule="evenodd" />
		<path fill="#0000ff" d="m361.28085 171.01312l23.905487 0l0 22.48819l-23.905487 0z" fill-rule="evenodd" />
		<path stroke="#000000" stroke-width="1.0" stroke-linejoin="round" stroke-linecap="butt" d="m361.28085 171.01312l23.905487 0l0 22.48819l-23.905487 0z" fill-rule="evenodd" />
		<path fill="#ff0000" d="m52.435696 348.75592l23.905514 0l0 22.48816l-23.905514 0z" fill-rule="evenodd" />
		<path stroke="#000000" stroke-width="1.0" stroke-linejoin="round" stroke-linecap="butt" d="m52.435696 348.75592l23.905514 0l0 22.48816l-23.905514 0z" fill-rule="evenodd" />
		<path fill="#0000ff" d="m303.62466 480.12598l23.905518 0l0 22.48819l-23.905518 0z" fill-rule="evenodd" />
		<path stroke="#000000" stroke-width="1.0" stroke-linejoin="round" stroke-linecap="butt" d="m303.62466 480.12598l23.905518 0l0 22.48819l-23.905518 0z" fill-rule="evenodd" />
		<path fill="#ff00ff" d="m378.53018 300.12598l23.905518 0l0 22.48819l-23.905518 0z" fill-rule="evenodd" />
		<path stroke="#000000" stroke-width="1.0" stroke-linejoin="round" stroke-linecap="butt" d="m378.53018 300.12598l23.905518 0l0 22.48819l-23.905518 0z" fill-rule="evenodd" />
		<path fill="#ff9900" d="m52.435696 196.16536l23.905514 0l0 22.48819l-23.905514 0z" fill-rule="evenodd" />
		<path stroke="#000000" stroke-width="1.0" stroke-linejoin="round" stroke-linecap="butt" d="m52.435696 196.16536l23.905514 0l0 22.48819l-23.905514 0z" fill-rule="evenodd" />
		<path fill="#cfe2f3" d="m660.8425 171.01312l23.905518 0l0 22.48819l-23.905518 0z" fill-rule="evenodd" />
		<path stroke="#000000" stroke-width="1.0" stroke-linejoin="round" stroke-linecap="butt" d="m660.8425 171.01312l23.905518 0l0 22.48819l-23.905518 0z" fill-rule="evenodd" />
		<path fill="#0000ff" d="m552.9055 437.24933l23.905518 0l0 22.48819l-23.905518 0z" fill-rule="evenodd" />
		<path stroke="#000000" stroke-width="1.0" stroke-linejoin="round" stroke-linecap="butt" d="m552.9055 437.24933l23.905518 0l0 22.48819l-23.905518 0z" fill-rule="evenodd" />
		<path fill="#ff0000" d="m61.70341 53.272964l59.05512 0l0 36.220474l-59.05512 0z" fill-rule="evenodd" />
		<path stroke="#000000" stroke-width="1.0" stroke-linejoin="round" stroke-linecap="butt" d="m61.70341 53.272964l59.05512 0l0 36.220474l-59.05512 0z" fill-rule="evenodd" />
		<path fill="#ffff00" d="m95.62467 587.81366l23.90551 0l0 22.48816l-23.90551 0z" fill-rule="evenodd" />
		<path stroke="#000000" stroke-width="1.0" stroke-linejoin="round" stroke-linecap="butt" d="m95.62467 587.81366l23.90551 0l0 22.48816l-23.90551 0z" fill-rule="evenodd" />
		<path fill="#ff0000" d="m251.41208 159.61154l23.905518 0l0 22.48819l-23.905518 0z" fill-rule="evenodd" />
		<path stroke="#000000" stroke-width="1.0" stroke-linejoin="round" stroke-linecap="butt" d="m251.41208 159.61154l23.905518 0l0 22.48819l-23.905518 0z" fill-rule="evenodd" />
		<path fill="#ffff00" d="m708.4173 277.6378l23.905518 0l0 22.48819l-23.905518 0z" fill-rule="evenodd" />
		<path stroke="#000000" stroke-width="1.0" stroke-linejoin="round" stroke-linecap="butt" d="m708.4173 277.6378l23.905518 0l0 22.48819l-23.905518 0z" fill-rule="evenodd" />
		<path fill="#0000ff" d="m600.27295 60.139107l23.905518 0l0 22.48819l-23.905518 0z" fill-rule="evenodd" />
		<path stroke="#000000" stroke-width="1.0" stroke-linejoin="round" stroke-linecap="butt" d="m600.27295 60.139107l23.905518 0l0 22.48819l-23.905518 0z" fill-rule="evenodd" />
		<path fill="#000000" d="m835.2756 71.391075l23.905518 0l0 22.48819l-23.905518 0z" fill-rule="evenodd" />
		<path stroke="#000000" stroke-width="1.0" stroke-linejoin="round" stroke-linecap="butt" d="m835.2756 71.391075l23.905518 0l0 22.48819l-23.905518 0z" fill-rule="evenodd" />
		<path fill="#ff0000" d="m441.7979 565.32544l23.905487 0l0 22.48822l-23.905487 0z" fill-rule="evenodd" />
		<path stroke="#000000" stroke-width="1.0" stroke-linejoin="round" stroke-linecap="butt" d="m441.7979 565.32544l23.905487 0l0 22.48822l-23.905487 0z" fill-rule="evenodd" />
		<path fill="#0000ff" d="m835.2756 561.2336l23.905518 0l0 22.48822l-23.905518 0z" fill-rule="evenodd" />
		<path stroke="#000000" stroke-width="1.0" stroke-linejoin="round" stroke-linecap="butt" d="m835.2756 561.2336l23.905518 0l0 22.48822l-23.905518 0z" fill-rule="evenodd" />
		<path fill="#ffff00" d="m279.71915 66.91076l23.905518 0l0 22.48819l-23.905518 0z" fill-rule="evenodd" />
		<path stroke="#000000" stroke-width="1.0" stroke-linejoin="round" stroke-linecap="butt" d="m279.71915 66.91076l23.905518 0l0 22.48819l-23.905518 0z" fill-rule="evenodd" />
		<path fill="#0000ff" d="m361.28085 171.01312l23.905487 0l0 22.48819l-23.905487 0z" fill-rule="evenodd" />
		<path stroke="#000000" stroke-width="1.0" stroke-linejoin="round" stroke-linecap="butt" d="m361.28085 171.01312l23.905487 0l0 22.48819l-23.905487 0z" fill-rule="evenodd" />
		<path fill="#ff0000" d="m52.435696 348.75592l23.905514 0l0 22.48816l-23.905514 0z" fill-rule="evenodd" />
		<path stroke="#000000" stroke-width="1.0" stroke-linejoin="round" stroke-linecap="butt" d="m52.435696 348.75592l23.905514 0l0 22.48816l-23.905514 0z" fill-rule="evenodd" />
		<path fill="#0000ff" d="m303.62466 480.12598l23.905518 0l0 22.48819l-23.905518 0z" fill-rule="evenodd" />
		<path stroke="#000000" stroke-width="1.0" stroke-linejoin="round" stroke-linecap="butt" d="m303.62466 480.12598l23.905518 0l0 22.48819l-23.905518 0z" fill-rule="evenodd" />
		<path fill="#ff00ff" d="m378.53018 300.12598l23.905518 0l0 22.48819l-23.905518 0z" fill-rule="evenodd" />
		<path stroke="#000000" stroke-width="1.0" stroke-linejoin="round" stroke-linecap="butt" d="m378.53018 300.12598l23.905518 0l0 22.48819l-23.905518 0z" fill-rule="evenodd" />
		<path fill="#ff9900" d="m52.435696 196.16536l23.905514 0l0 22.48819l-23.905514 0z" fill-rule="evenodd" />
		<path stroke="#000000" stroke-width="1.0" stroke-linejoin="round" stroke-linecap="butt" d="m52.435696 196.16536l23.905514 0l0 22.48819l-23.905514 0z" fill-rule="evenodd" />
		<path fill="#cfe2f3" d="m660.8425 171.01312l23.905518 0l0 22.48819l-23.905518 0z" fill-rule="evenodd" />
		<path stroke="#000000" stroke-width="1.0" stroke-linejoin="round" stroke-linecap="butt" d="m660.8425 171.01312l23.905518 0l0 22.48819l-23.905518 0z" fill-rule="evenodd" />
		<path fill="#0000ff" d="m552.9055 437.24933l23.905518 0l0 22.48819l-23.905518 0z" fill-rule="evenodd" />
		<path stroke="#000000" stroke-width="1.0" stroke-linejoin="round" stroke-linecap="butt" d="m552.9055 437.24933l23.905518 0l0 22.48819l-23.905518 0z" fill-rule="evenodd" />
		<path fill="#ff0000" d="m771.21783 385.5013l23.905518 0l0 22.48819l-23.905518 0z" fill-rule="evenodd" />
		<path stroke="#000000" stroke-width="1.0" stroke-linejoin="round" stroke-linecap="butt" d="m771.21783 385.5013l23.905518 0l0 22.48819l-23.905518 0z" fill-rule="evenodd" />
		<path fill="#ffff00" d="m646.874 565.32544l23.905518 0l0 22.48822l-23.905518 0z" fill-rule="evenodd" />
		<path stroke="#000000" stroke-width="1.0" stroke-linejoin="round" stroke-linecap="butt" d="m646.874 565.32544l23.905518 0l0 22.48822l-23.905518 0z" fill-rule="evenodd" />
		<path fill="#000000" fill-opacity="0.0" d="m91.23097 89.49344l160.18898 81.354324" fill-rule="evenodd" />
		<path stroke="#000000" stroke-width="1.0" stroke-linejoin="round" stroke-linecap="butt" d="m91.23097 89.49344l160.18898 81.354324" fill-rule="evenodd" />
		<path fill="#000000" fill-opacity="0.0" d="m263.36484 182.09973l127.1181 118.01575" fill-rule="evenodd" />
		<path stroke="#000000" stroke-width="1.0" stroke-linejoin="round" stroke-linecap="butt" d="m263.36484 182.09973l127.1181 118.01575" fill-rule="evenodd" />
		<path fill="#000000" fill-opacity="0.0" d="m120.75853 71.3832l158.96062 6.771652" fill-rule="evenodd" />
		<path stroke="#000000" stroke-width="1.0" stroke-linejoin="round" stroke-linecap="butt" d="m120.75853 71.3832l158.96062 6.771652" fill-rule="evenodd" />
		<path fill="#000000" fill-opacity="0.0" d="m275.3176 170.85564l85.95276 11.401581" fill-rule="evenodd" />
		<path stroke="#000000" stroke-width="1.0" stroke-linejoin="round" stroke-linecap="butt" d="m275.3176 170.85564l85.95276 11.401581" fill-rule="evenodd" />
		<path fill="#000000" fill-opacity="0.0" d="m303.62466 78.154854l357.22836 104.09449" fill-rule="evenodd" />
		<path stroke="#000000" stroke-width="1.0" stroke-linejoin="round" stroke-linecap="butt" d="m303.62466 78.154854l357.22836 104.09449" fill-rule="evenodd" />
		<path fill="#000000" fill-opacity="0.0" d="m263.36484 182.09973l-187.02362 25.322845" fill-rule="evenodd" />
		<path stroke="#000000" stroke-width="1.0" stroke-linejoin="round" stroke-linecap="butt" d="m263.36484 182.09973l-187.02362 25.322845" fill-rule="evenodd" />
		<path fill="#000000" fill-opacity="0.0" d="m672.7953 171.01312l-60.566956 -88.37795" fill-rule="evenodd" />
		<path stroke="#000000" stroke-width="1.0" stroke-linejoin="round" stroke-linecap="butt" d="m672.7953 171.01312l-60.566956 -88.37795" fill-rule="evenodd" />
		<path fill="#000000" fill-opacity="0.0" d="m64.38845 218.65355l0 130.11024" fill-rule="evenodd" />
		<path stroke="#000000" stroke-width="1.0" stroke-linejoin="round" stroke-linecap="butt" d="m64.38845 218.65355l0 130.11024" fill-rule="evenodd" />
		<path fill="#000000" fill-opacity="0.0" d="m684.74805 182.25722l162.48816 -88.37795" fill-rule="evenodd" />
		<path stroke="#000000" stroke-width="1.0" stroke-linejoin="round" stroke-linecap="butt" d="m684.74805 182.25722l162.48816 -88.37795" fill-rule="evenodd" />
		<path fill="#000000" fill-opacity="0.0" d="m64.38845 371.24408l43.181107 216.56696" fill-rule="evenodd" />
		<path stroke="#000000" stroke-width="1.0" stroke-linejoin="round" stroke-linecap="butt" d="m64.38845 371.24408l43.181107 216.56696" fill-rule="evenodd" />
		<path fill="#000000" fill-opacity="0.0" d="m835.2756 82.63517l-270.42517 354.61417" fill-rule="evenodd" />
		<path stroke="#000000" stroke-width="1.0" stroke-linejoin="round" stroke-linecap="butt" d="m835.2756 82.63517l-270.42517 354.61417" fill-rule="evenodd" />
		<path fill="#000000" fill-opacity="0.0" d="m107.57743 587.81366l196.06299 -96.44095" fill-rule="evenodd" />
		<path stroke="#000000" stroke-width="1.0" stroke-linejoin="round" stroke-linecap="butt" d="m107.57743 587.81366l196.06299 -96.44095" fill-rule="evenodd" />
		<path fill="#000000" fill-opacity="0.0" d="m732.3228 288.8819l50.834656 96.62991" fill-rule="evenodd" />
		<path stroke="#000000" stroke-width="1.0" stroke-linejoin="round" stroke-linecap="butt" d="m732.3228 288.8819l50.834656 96.62991" fill-rule="evenodd" />
		<path fill="#000000" fill-opacity="0.0" d="m771.21783 396.7454l-112.37793 168.56693" fill-rule="evenodd" />
		<path stroke="#000000" stroke-width="1.0" stroke-linejoin="round" stroke-linecap="butt" d="m771.21783 396.7454l-112.37793 168.56693" fill-rule="evenodd" />
		<path fill="#000000" fill-opacity="0.0" d="m552.9055 448.49344l-150.4567 -137.13385" fill-rule="evenodd" />
		<path stroke="#000000" stroke-width="1.0" stroke-linejoin="round" stroke-linecap="butt" d="m552.9055 448.49344l-150.4567 -137.13385" fill-rule="evenodd" />
		<path fill="#000000" fill-opacity="0.0" d="m315.57742 480.12598l62.960632 -168.75589" fill-rule="evenodd" />
		<path stroke="#000000" stroke-width="1.0" stroke-linejoin="round" stroke-linecap="butt" d="m315.57742 480.12598l62.960632 -168.75589" fill-rule="evenodd" />
		<path fill="#000000" fill-opacity="0.0" d="m564.8583 437.24933l-179.68506 -254.99211" fill-rule="evenodd" />
		<path stroke="#000000" stroke-width="1.0" stroke-linejoin="round" stroke-linecap="butt" d="m564.8583 437.24933l-179.68506 -254.99211" fill-rule="evenodd" />
		<path fill="#000000" fill-opacity="0.0" d="m385.18634 182.25722l215.08661 -110.86614" fill-rule="evenodd" />
		<path stroke="#000000" stroke-width="1.0" stroke-linejoin="round" stroke-linecap="butt" d="m
		<path fill="#ff0000" d="m771.21783 385.5013l23.905518 0l0 22.48819l-23.905518 0z" fill-rule="evenodd" />
		<path stroke="#000000" stroke-width="1.0" stroke-linejoin="round" stroke-linecap="butt" d="m771.21783 385.5013l23.905518 0l0 22.48819l-23.905518 0z" fill-rule="evenodd" />
		<path fill="#ffff00" d="m646.874 565.32544l23.905518 0l0 22.48822l-23.905518 0z" fill-rule="evenodd" />
		<path stroke="#000000" stroke-width="1.0" stroke-linejoin="round" stroke-linecap="butt" d="m646.874 565.32544l23.905518 0l0 22.48822l-23.905518 0z" fill-rule="evenodd" />
		<path fill="#000000" fill-opacity="0.0" d="m91.23097 89.49344l160.18898 81.354324" fill-rule="evenodd" />
		<path stroke="#000000" stroke-width="1.0" stroke-linejoin="round" stroke-linecap="butt" d="m91.23097 89.49344l160.18898 81.354324" fill-rule="evenodd" />
		<path fill="#000000" fill-opacity="0.0" d="m263.36484 182.09973l127.1181 118.01575" fill-rule="evenodd" />
		<path stroke="#000000" stroke-width="1.0" stroke-linejoin="round" stroke-linecap="butt" d="m263.36484 182.09973l127.1181 118.01575" fill-rule="evenodd" />
		<path fill="#000000" fill-opacity="0.0" d="m120.75853 71.3832l158.96062 6.771652" fill-rule="evenodd" />
		<path stroke="#000000" stroke-width="1.0" stroke-linejoin="round" stroke-linecap="butt" d="m120.75853 71.3832l158.96062 6.771652" fill-rule="evenodd" />
		<path fill="#000000" fill-opacity="0.0" d="m275.3176 170.85564l85.95276 11.401581" fill-rule="evenodd" />
		<path stroke="#000000" stroke-width="1.0" stroke-linejoin="round" stroke-linecap="butt" d="m275.3176 170.85564l85.95276 11.401581" fill-rule="evenodd" />
		<path fill="#000000" fill-opacity="0.0" d="m303.62466 78.154854l357.22836 104.09449" fill-rule="evenodd" />
		<path stroke="#000000" stroke-width="1.0" stroke-linejoin="round" stroke-linecap="butt" d="m303.62466 78.154854l357.22836 104.09449" fill-rule="evenodd" />
		<path fill="#000000" fill-opacity="0.0" d="m263.36484 182.09973l-187.02362 25.322845" fill-rule="evenodd" />
		<path stroke="#000000" stroke-width="1.0" stroke-linejoin="round" stroke-linecap="butt" d="m263.36484 182.09973l-187.02362 25.322845" fill-rule="evenodd" />
		<path fill="#000000" fill-opacity="0.0" d="m672.7953 171.01312l-60.566956 -88.37795" fill-rule="evenodd" />
		<path stroke="#000000" stroke-width="1.0" stroke-linejoin="round" stroke-linecap="butt" d="m672.7953 171.01312l-60.566956 -88.37795" fill-rule="evenodd" />
		<path fill="#000000" fill-opacity="0.0" d="m64.38845 218.65355l0 130.11024" fill-rule="evenodd" />
		<path stroke="#000000" stroke-width="1.0" stroke-linejoin="round" stroke-linecap="butt" d="m64.38845 218.65355l0 130.11024" fill-rule="evenodd" />
		<path fill="#000000" fill-opacity="0.0" d="m684.74805 182.25722l162.48816 -88.37795" fill-rule="evenodd" />
		<path stroke="#000000" stroke-width="1.0" stroke-linejoin="round" stroke-linecap="butt" d="m684.74805 182.25722l162.48816 -88.37795" fill-rule="evenodd" />
		<path fill="#000000" fill-opacity="0.0" d="m64.38845 371.24408l43.181107 216.56696" fill-rule="evenodd" />
		<path stroke="#000000" stroke-width="1.0" stroke-linejoin="round" stroke-linecap="butt" d="m64.38845 371.24408l43.181107 216.56696" fill-rule="evenodd" />
		<path fill="#000000" fill-opacity="0.0" d="m835.2756 82.63517l-270.42517 354.61417" fill-rule="evenodd" />
		<path stroke="#000000" stroke-width="1.0" stroke-linejoin="round" stroke-linecap="butt" d="m835.2756 82.63517l-270.42517 354.61417" fill-rule="evenodd" />
		<path fill="#000000" fill-opacity="0.0" d="m107.57743 587.81366l196.06299 -96.44095" fill-rule="evenodd" />
		<path stroke="#000000" stroke-width="1.0" stroke-linejoin="round" stroke-linecap="butt" d="m107.57743 587.81366l196.06299 -96.44095" fill-rule="evenodd" />
		<path fill="#000000" fill-opacity="0.0" d="m732.3228 288.8819l50.834656 96.62991" fill-rule="evenodd" />
		<path stroke="#000000" stroke-width="1.0" stroke-linejoin="round" stroke-linecap="butt" d="m732.3228 288.8819l50.834656 96.62991" fill-rule="evenodd" />
		<path fill="#000000" fill-opacity="0.0" d="m771.21783 396.7454l-112.37793 168.56693" fill-rule="evenodd" />
		<path stroke="#000000" stroke-width="1.0" stroke-linejoin="round" stroke-linecap="butt" d="m771.21783 396.7454l-112.37793 168.56693" fill-rule="evenodd" />
		<path fill="#000000" fill-opacity="0.0" d="m552.9055 448.49344l-150.4567 -137.13385" fill-rule="evenodd" />
		<path stroke="#000000" stroke-width="1.0" stroke-linejoin="round" stroke-linecap="butt" d="m552.9055 448.49344l-150.4567 -137.13385" fill-rule="evenodd" />
		<path fill="#000000" fill-opacity="0.0" d="m315.57742 480.12598l62.960632 -168.75589" fill-rule="evenodd" />
		<path stroke="#000000" stroke-width="1.0" stroke-linejoin="round" stroke-linecap="butt" d="m315.57742 480.12598l62.960632 -168.75589" fill-rule="evenodd" />
		<path fill="#000000" fill-opacity="0.0" d="m564.8583 437.24933l-179.68506 -254.99211" fill-rule="evenodd" />
		<path stroke="#000000" stroke-width="1.0" stroke-linejoin="round" stroke-linecap="butt" d="m564.8583 437.24933l-179.68506 -254.99211" fill-rule="evenodd" />
		<path fill="#000000" fill-opacity="0.0" d="m385.18634 182.25722l215.08661 -110.86614" fill-rule="evenodd" />
		<path stroke="#000000" stroke-width="1.0" stroke-linejoin="round" stroke-linecap="butt" d="m385.18634 182.25722l215.08661 -110.86614" fill-rule="evenodd" />
		<path fill="#000000" fill-opacity="0.0" d="m453.75067 565.32544l-126.20474 -73.95273" fill-rule="evenodd" />
		<path stroke="#000000" stroke-width="1.0" stroke-linejoin="round" stroke-linecap="butt" d="m453.75067 565.32544l-126.20474 -73.95273" fill-rule="evenodd" />
		<path fill="#000000" fill-opacity="0.0" d="m303.62466 491.3701l-239.24408 -272.72443" fill-rule="evenodd" />
		<path stroke="#000000" stroke-width="1.0" stroke-linejoin="round" stroke-linecap="butt" d="m303.62466 491.3701l-239.24408 -272.72443" fill-rule="evenodd" />
		<path fill="#000000" fill-opacity="0.0" d="m795.13385 396.76117l52.094482 164.47241" fill-rule="evenodd" />
		<path stroke="#000000" stroke-width="1.0" stroke-linejoin="round" stroke-linecap="butt" d="m795.13385 396.76117l52.094482 164.47241" fill-rule="evenodd" />
		<path fill="#000000" fill-opacity="0.0" d="m720.37006 300.12598l-143.55902 148.37796" fill-rule="evenodd" />
		<path stroke="#000000" stroke-width="1.0" stroke-linejoin="round" stroke-linecap="butt" d="m720.37006 300.12598l-143.55902 148.37796" fill-rule="evenodd" />
		<path fill="#00ff00" d="m237.94751 282.80054l0 0c0 -10.002014 9.666412 -18.11026 21.590546 -18.11026l0 0c11.924133 0 21.590546 8.108246 21.590546 18.11026l0 0c0 10.001984 -9.666412 18.11023 -21.590546 18.11023l0 0c-11.924133 0 -21.590546 -8.108246 -21.590546 -18.11023z" fill-rule="evenodd" />
		<path stroke="#000000" stroke-width="1.0" stroke-linejoin="round" stroke-linecap="butt" d="m237.94751 282.80054l0 0c0 -10.002014 9.666412 -18.11026 21.590546 -18.11026l0 0c11.924133 0 21.590546 8.108246 21.590546 18.11026l0 0c0 10.001984 -9.666412 18.11023 -21.590546 18.11023l0 0c-11.924133 0 -21.590546 -8.108246 -21.590546 -18.11023z" fill-rule="evenodd" />
		<path fill="#cfe2f3" d="m31.572178 142.6798l0 0c0 -10.002014 9.66642 -18.110237 21.590553 -18.110237l0 0c11.9241295 0 21.59055 8.108223 21.59055 18.110237l0 0c0 10.001999 -9.66642 18.11023 -21.59055 18.11023l0 0c-11.924133 0 -21.590553 -8.108231 -21.590553 -18.11023z" fill-rule="evenodd" />
		<path stroke="#000000" stroke-width="1.0" stroke-linejoin="round" stroke-linecap="butt" d="m31.572178 142.6798l0 0c0 -10.002014 9.66642 -18.110237 21.590553 -18.110237l0 0c11.9241295 0 21.59055 8.108223 21.59055 18.110237l0 0c0 10.001999 -9.66642 18.11023 -21.59055 18.11023l0 0c-11.924133 0 -21.590553 -8.108231 -21.590553 -18.11023z" fill-rule="evenodd" />
		<path fill="#00ff00" d="m0 89.50131l0 0c0 -10.002007 9.666419 -18.110237 21.590551 -18.110237l0 0c11.924131 0 21.590551 8.108231 21.590551 18.110237l0 0c0 10.002007 -9.66642 18.110237 -21.590551 18.110237l0 0c-11.924132 0 -21.590551 -8.108231 -21.590551 -18.110237z" fill-rule="evenodd" />
		<path stroke="#000000" stroke-width="1.0" stroke-linejoin="round" stroke-linecap="butt" d="m0 89.50131l0 0c0 -10.002007 9.666419 -18.110237 21.590551 -18.110237l0 0c11.924131 0 21.590551 8.108231 21.590551 18.110237l0 0c0 10.002007 -9.66642 18.110237 -21.590551 18.110237l0 0c-11.924132 0 -21.590551 -8.108231 -21.590551 -18.110237z" fill-rule="evenodd" />
		<path fill="#00ff00" d="m79.902885 130.1273l0 0c0 -10.002014 9.66642 -18.110245 21.590553 -18.110245l0 0c11.924133 0 21.590553 8.108231 21.590553 18.110245l0 0c0 10.001999 -9.66642 18.11023 -21.590553 18.11023l0 0c-11.924133 0 -21.590553 -8.108231 -21.590553 -18.11023z" fill-rule="evenodd" />
		<path stroke="#000000" stroke-width="1.0" stroke-linejoin="round" stroke-linecap="butt" d="m79.902885 130.1273l0 0c0 -10.002014 9.66642 -18.110245 21.590553 -18.110245l0 0c11.924133 0 21.590553 8.108231 21.590553 18.110245l0 0c0 10.001999 -9.66642 18.11023 -21.590553 18.11023l0 0c-11.924133 0 -21.590553 -8.108231 -21.590553 -18.11023z" fill-rule="evenodd" />
		<path fill="#00ff00" d="m134.41208 35.16273l0 0c0 -10.002008 9.666412 -18.110237 21.590546 -18.110237l0 0c11.924133 0 21.590546 8.108229 21.590546 18.110237l0 0c0 10.002007 -9.666412 18.110233 -21.590546 18.110233l0 0c-11.924133 0 -21.590546 -8.108227 -21.590546 -18.110233z" fill-rule="evenodd" />
		<path stroke="#000000" stroke-width="1.0" stroke-linejoin="round" stroke-linecap="butt" d="m134.41208 35.16273l0 0c0 -10.002008 9.666412 -18.110237 21.590546 -18.110237l0 0c11.924133 0 21.590546 8.108229 21.590546 18.110237l0 0c0 10.002007 -9.666412 18.110233 -21.590546 18.110233l0 0c-11.924133 0 -21.590546 -8.108227 -21.590546 -18.110233z" fill-rule="evenodd" />
		<path fill="#00ff00" d="m744.40155 675.8924l0 0c0 -10.002014 9.666443 -18.11023 21.590576 -18.11023l0 0c11.924133 0 21.590576 8.108215 21.590576 18.11023l0 0c0 10.002014 -9.666443 18.11023 -21.590576 18.11023l0 0c-11.924133 0 -21.590576 -8.108215 -21.590576 -18.11023z" fill-rule="evenodd" />
		<path stroke="#000000" stroke-width="1.0" stroke-linejoin="round" stroke-linecap="butt" d="m744.40155 675.8924l0 0c0 -10.002014 9.666443 -18.11023 21.590576 -18.11023l0 0c11.924133 0 21.590576 8.108215 21.590576 18.11023l0 0c0 10.002014 -9.666443 18.11023 -21.590576 18.11023l0 0c-11.924133 0 -21.590576 -8.108215 -21.590576 -18.11023z" fill-rule="evenodd" />
		<path fill="#00ff00" d="m91.23097 23.585302l0 0c0 -10.0020075 9.66642 -18.110237 21.590553 -18.110237l0 0c11.924126 0 21.590553 8.108229 21.590553 18.110237l0 0c0 10.002008 -9.666428 18.110235 -21.590553 18.110235l0 0c-11.924133 0 -21.590553 -8.108227 -21.590553 -18.110235z" fill-rule="evenodd" />
		<path stroke="#000000" stroke-width="1.0" stroke-linejoin="round" stroke-linecap="butt" d="m91.23097 23.585302l0 0c0 -10.0020075 9.66642 -18.110237 21.590553 -18.110237l0 0c11.924126 0 21.590553 8.108229 21.590553 18.110237l0 0c0 10.002008 -9.666428 18.110235 -21.590553 18.110235l0 0c-11.924133 0 -21.590553 -8.108227 -21.590553 -18.110235z" fill-rule="evenodd" />
		<path fill="#00ff00" d="m33.160107 142.82939l0 0c0 -10.001999 9.666416 -18.11023 21.59055 -18.11023l0 0c11.924133 0 21.590553 8.108231 21.590553 18.11023l0 0c0 10.002014 -9.66642 18.110245 -21.590553 18.110245l0 0c-11.924133 0 -21.59055 -8.108231 -21.59055 -18.110245z" fill-rule="evenodd" />
		<path stroke="#000000" stroke-width="1.0" stroke-linejoin="round" stroke-linecap="butt" d="m33.160107 142.82939l0 0c0 -10.001999 9.666416 -18.11023 21.59055 -18.11023l0 0c11.924133 0 21.590553 8.108231 21.590553 18.11023l0 0c0 10.002014 -9.66642 18.110245 -21.590553 18.110245l0 0c-11.924133 0 -21.59055 -8.108231 -21.59055 -18.110245z" fill-rule="evenodd" />
		<path fill="#00ff00" d="m905.15485 367.021l0 0c0 -10.002014 9.666443 -18.11023 21.590576 -18.11023l0 0c11.924133 0 21.590515 8.108215 21.590515 18.11023l0 0c0 10.002014 -9.666382 18.11023 -21.590515 18.11023l0 0c-11.924133 0 -21.590576 -8.108215 -21.590576 -18.11023z" fill-rule="evenodd" />
		<path stroke="#000000" stroke-width="1.0" stroke-linejoin="round" stroke-linecap="butt" d="m905.15485 367.021l0 0c0 -10.002014 9.666443 -18.11023 21.590576 -18.11023l0 0c11.924133 0 21.590515 8.108215 21.590515 18.11023l0 0c0 10.002014 -9.666382 18.11023 -21.590515 18.11023l0 0c-11.924133 0 -21.590576 -8.108215 -21.590576 -18.11023z" fill-rule="evenodd" />
		<path fill="#00ff00" d="m670.77954 432.7257l0 0c0 -10.001984 9.666382 -18.11023 21.590515 -18.11023l0 0c11.924133 0 21.590576 8.108246 21.590576 18.11023l0 0c0 10.002014 -9.666443 18.11026 -21.590576 18.11026l0 0c-11.924133 0 -21.590515 -8.108246 -21.590515 -18.11026z" fill-rule="evenodd" />
		<path stroke="#000000" stroke-width="1.0" stroke-linejoin="round" stroke-linecap="butt" d="m670.77954 432.7257l0 0c0 -10.001984 9.666382 -18.11023 21.590515 -18.11023l0 0c11.924133 0 21.590576 8.108246 21.590576 18.11023l0 0c0 10.002014 -9.666443 18.11026 -21.590576 18.11026l0 0c-11.924133 0 -21.590515 -8.108246 -21.590515 -18.11026z" fill-rule="evenodd" />
		<path fill="#00ff00" d="m123.08399 410.80054l0 0c0 -10.002014 9.66642 -18.11026 21.590553 -18.11026l0 0c11.924133 0 21.590546 8.108246 21.590546 18.11026l0 0c0 10.001984 -9.666412 18.11023 -21.590546 18.11023l0 0c-11.924133 0 -21.590553 -8.108246 -21.590553 -18.11023z" fill-rule="evenodd" />
		<path stroke="#000000" stroke-width="1.0" stroke-linejoin="round" stroke-linecap="butt" d="m123.08399 410.80054l0 0c0 -10.002014 9.66642 -18.11026 21.590553 -18.11026l0 0c11.924133 0 21.590546 8.108246 21.590546 18.11026l0 0c0 10.001984 -9.666412 18.11023 -21.590546 18.11023l0 0c-11.924133 0 -21.590553 -8.108246 -21.590553 -18.11023z" fill-rule="evenodd" />
		<path fill="#00ff00" d="m720.37006 42.02887l0 0c0 -10.002007 9.666443 -18.110235 21.590576 -18.110235l0 0c11.924133 0 21.590576 8.108229 21.590576 18.110235l0 0c0 10.00201 -9.666443 18.110237 -21.590576 18.110237l0 0c-11.924133 0 -21.590576 -8.108227 -21.590576 -18.110237z" fill-rule="evenodd" />
		<path stroke="#000000" stroke-width="1.0" stroke-linejoin="round" stroke-linecap="butt" d="m720.37006 42.02887l0 0c0 -10.002007 9.666443 -18.110235 21.590576 -18.110235l0 0c11.924133 0 21.590576 8.108229 21.590576 18.110235l0 0c0 10.00201 -9.666443 18.110237 -21.590576 18.110237l0 0c-11.924133 0 -21.590576 -8.108227 -21.590576 -18.110237z" fill-rule="evenodd" />
		<path fill="#00ff00" d="m208.38058 635.9134l0 0c0 -10.002014 9.666412 -18.11023 21.590546 -18.11023l0 0c11.924133 0 21.590546 8.108215 21.590546 18.11023l0 0c0 10.002014 -9.666412 18.11023 -21.590546 18.11023l0 0c-11.924133 0 -21.590546 -8.108215 -21.590546 -18.11023z" fill-rule="evenodd" />
		<path stroke="#000000" stroke-width="1.0" stroke-linejoin="round" stroke-linecap="butt" d="m208.38058 635.9134l0 0c0 -10.002014 9.666412 -18.11023 21.590546 -18.11023l0 0c11.924133 0 21.590546 8.108215 21.590546 18.11023l0 0c0 10.002014 -9.666412 18.11023 -21.590546 18.11023l0 0c-11.924133 0 -21.590546 -8.108215 -21.590546 -18.11023z" fill-rule="evenodd" />
		<path fill="#00ff00" d="m208.37927 106.72179l0 0c0 -10.002007 9.666412 -18.110237 21.590546 -18.110237l0 0c11.924133 0 21.590546 8.108231 21.590546 18.110237l0 0c0 10.002007 -9.666412 18.110237 -21.590546 18.110237l0 0c-11.924133 0 -21.590546 -8.108231 -21.590546 -18.110237z" fill-rule="evenodd" />
		<path stroke="#000000" stroke-width="1.0" stroke-linejoin="round" stroke-linecap="butt" d="m208.37927 106.72179l0 0c0 -10.002007 9.666412 -18.110237 21.590546 -18.110237l0 0c11.924133 0 21.590546 8.108231 21.590546 18.110237l0 0c0 10.002007 -9.666412 18.110237 -21.590546 18.110237l0 0c-11.924133 0 -21.590546 -8.108231 -21.590546 -18.110237z" fill-rule="evenodd" />
		<path fill="#00ff00" d="m445.9475 60.036747l0 0c0 -10.00201 9.666412 -18.110237 21.590546 -18.110237l0 0c11.924133 0 21.590546 8.108227 21.590546 18.110237l0 0c0 10.002003 -9.666412 18.110233 -21.590546 18.110233l0 0c-11.924133 0 -21.590546 -8.108231 -21.590546 -18.110233z" fill-rule="evenodd" />
		<path stroke="#000000" stroke-width="1.0" stroke-linejoin="round" stroke-linecap="butt" d="m445.9475 60.036747l0 0c0 -10.00201 9.666412 -18.110237 21.590546 -18.110237l0 0c11.924133 0 21.590546 8.108227 21.590546 18.110237l0 0c0 10.002003 -9.666412 18.110233 -21.590546 18.110233l0 0c-11.924133 0 -21.590546 -8.108231 -21.590546 -18.110233z" fill-rule="evenodd" />
		<path fill="#00ff00" d="m865.45667 225.5328l0 0c0 -10.001999 9.666443 -18.11023 21.590576 -18.11023l0 0c11.924133 0 21.590576 8.108231 21.590576 18.11023l0 0c0 10.002014 -9.666443 18.110245 -21.590576 18.110245l0 0c-11.924133 0 -21.590576 -8.108231 -21.590576 -18.110245z" fill-rule="evenodd" />
		<path stroke="#000000" stroke-width="1.0" stroke-linejoin="round" stroke-linecap="butt" d="m865.45667 225.5328l0 0c0 -10.001999 9.666443 -18.11023 21.590576 -18.11023l0 0c11.924133 0 21.590576 8.108231 21.590576 18.11023l0 0c0 10.002014 -9.666443 18.110245 -21.590576 18.110245l0 0c-11.924133 0 -21.590576 -8.108231 -21.590576 -18.110245z" fill-rule="evenodd" />
		<path fill="#00ff00" d="m539.5512 225.5328l0 0c0 -10.001999 9.666382 -18.11023 21.590515 -18.11023l0 0c11.924133 0 21.590576 8.108231 21.590576 18.11023l0 0c0 10.002014 -9.666443 18.110245 -21.590576 18.110245l0 0c-11.924133 0 -21.590515 -8.108231 -21.590515 -18.110245z" fill-rule="evenodd" />
		<path stroke="#000000" stroke-width="1.0" stroke-linejoin="round" stroke-linecap="butt" d="m539.5512 225.5328l0 0c0 -10.001999 9.666382 -18.11023 21.590515 -18.11023l0 0c11.924133 0 21.590576 8.108231 21.590576 18.11023l0 0c0 10.002014 -9.666443 18.110245 -21.590576 18.110245l0 0c-11.924133 0 -21.590515 -8.108231 -21.590515 -18.110245z" fill-rule="evenodd" />
		<path fill="#00ff00" d="m552.9055 666.1181l0 0c0 -10.002014 9.666443 -18.11023 21.590515 -18.11023l0 0c11.924133 0 21.590576 8.108215 21.590576 18.11023l0 0c0 10.002014 -9.666443 18.11023 -21.590576 18.11023l0 0c-11.924072 0 -21.590515 -8.108215 -21.590515 -18.11023z" fill-rule="evenodd" />
		<path stroke="#000000" stroke-width="1.0" stroke-linejoin="round" stroke-linecap="butt" d="m552.9055 666.1181l0 0c0 -10.002014 9.666443 -18.11023 21.590515 -18.11023l0 0c11.924133 0 21.590576 8.108215 21.590576 18.11023l0 0c0 10.002014 -9.666443 18.11023 -21.590576 18.11023l0 0c-11.924072 0 -21.590515 -8.108215 -21.590515 -18.11023z" fill-rule="evenodd" />
		<path fill="#00ff00" d="m445.9475 655.16534l0 0c0 -10.002014 9.666412 -18.11023 21.590546 -18.11023l0 0c11.924133 0 21.590546 8.108215 21.590546 18.11023l0 0c0 10.002014 -9.666412 18.11023 -21.590546 18.11023l0 0c-11.924133 0 -21.590546 -8.108215 -21.590546 -18.11023z" fill-rule="evenodd" />
		<path stroke="#000000" stroke-width="1.0" stroke-linejoin="round" stroke-linecap="butt" d="m445.9475 655.16534l0 0c0 -10.002014 9.666412 -18.11023 21.590546 -18.11023l0 0c11.924133 0 21.590546 8.108215 21.590546 18.11023l0 0c0 10.002014 -9.666412 18.11023 -21.590546 18.11023l0 0c-11.924133 0 -21.590546 -8.108215 -21.590546 -18.11023z" fill-rule="evenodd" />
		<path fill="#00ff00" d="m327.16403 655.16534l0 0c0 -10.002014 9.666443 -18.11023 21.590576 -18.11023l0 0c11.924103 0 21.590546 8.108215 21.590546 18.11023l0 0c0 10.002014 -9.666443 18.11023 -21.590546 18.11023l0 0c-11.924133 0 -21.590576 -8.108215 -21.590576 -18.11023z" fill-rule="evenodd" />
		<path stroke="#000000" stroke-width="1.0" stroke-linejoin="round" stroke-linecap="butt" d="m327.16403 655.16534l0 0c0 -10.002014 9.666443 -18.11023 21.590576 -18.11023l0 0c11.924103 0 21.590546 8.108215 21.590546 18.11023l0 0c0 10.002014 -9.666443 18.11023 -21.590546 18.11023l0 0c-11.924133 0 -21.590576 -8.108215 -21.590576 -18.11023z" fill-rule="evenodd" />
		<path fill="#00ff00" d="m670.77954 126.82415l0 0c0 -10.002014 9.666382 -18.110237 21.590515 -18.110237l0 0c11.924133 0 21.590576 8.108223 21.590576 18.110237l0 0c0 10.002007 -9.666443 18.110237 -21.590576 18.110237l0 0c-11.924133 0 -21.590515 -8.108231 -21.590515 -18.110237z" fill-rule="evenodd" />
		<path stroke="#000000" stroke-width="1.0" stroke-linejoin="round" stroke-linecap="butt" d="m670.77954 126.82415l0 0c0 -10.002014 9.666382 -18.110237 21.590515 -18.110237l0 0c11.924133 0 21.590576 8.108223 21.590576 18.110237l0 0c0 10.002007 -9.666443 18.110237 -21.590576 18.110237l0 0c-11.924133 0 -21.590515 -8.108231 -21.590515 -18.110237z" fill-rule="evenodd" />
		<path fill="#00ff00" d="m468.38058 491.3701l0 0c0 -10.002014 9.666412 -18.11023 21.590546 -18.11023l0 0c11.924133 0 21.590546 8.108215 21.590546 18.11023l0 0c0 10.002014 -9.666412 18.11023 -21.590546 18.11023l0 0c-11.924133 0 -21.590546 -8.108215 -21.590546 -18.11023z" fill-rule="evenodd" />
		<path stroke="#000000" stroke-width="1.0" stroke-linejoin="round" stroke-linecap="butt" d="m468.38058 491.3701l0 0c0 -10.002014 9.666412 -18.11023 21.590546 -18.11023l0 0c11.924133 0 21.590546 8.108215 21.590546 18.11023l0 0c0 10.002014 -9.666412 18.11023 -21.590546 18.11023l0 0c-11.924133 0 -21.590546 -8.108215 -21.590546 -18.11023z" fill-rule="evenodd" />
		<path fill="#00ff00" d="m468.38058 203.99738l0 0c0 -10.002014 9.666412 -18.11023 21.590546 -18.11023l0 0c11.924133 0 21.590546 8.108215 21.590546 18.11023l0 0c0 10.002014 -9.666412 18.11023 -21.590546 18.11023l0 0c-11.924133 0 -21.590546 -8.108215 -21.590546 -18.11023z" fill-rule="evenodd" />
		<path stroke="#000000" stroke-width="1.0" stroke-linejoin="round" stroke-linecap="butt" d="m468.38058 203.99738l0 0c0 -10.002014 9.666412 -18.11023 21.590546 -18.11023l0 0c11.924133 0 21.590546 8.108215 21.590546 18.11023l0 0c0 10.002014 -9.666412 18.11023 -21.590546 18.11023l0 0c-11.924133 0 -21.590546 -8.108215 -21.590546 -18.11023z" fill-rule="evenodd" />
		<path fill="#00ff00" d="m646.874 675.8924l0 0c0 -10.002014 9.666382 -18.11023 21.590515 -18.11023l0 0c11.924133 0 21.590576 8.108215 21.590576 18.11023l0 0c0 10.002014 -9.666443 18.11023 -21.590576 18.11023l0 0c-11.924133 0 -21.590515 -8.108215 -21.590515 -18.11023z" fill-rule="evenodd" />
		<path stroke="#000000" stroke-width="1.0" stroke-linejoin="round" stroke-linecap="butt" d="m646.874 675.8924l0 0c0 -10.002014 9.666382 -18.11023 21.590515 -18.11023l0 0c11.924133 0 21.590576 8.108215 21.590576 18.11023l0 0c0 10.002014 -9.666443 18.11023 -21.590576 18.11023l0 0c-11.924133 0 -21.590515 -8.108215 -21.590515 -18.11023z" fill-rule="evenodd" />
	</g>
</svg>