<?xml version="1.0" encoding="UTF-8" standalone="no"?>
<!-- Created with Inkscape (http://www.inkscape.org/) -->

<svg
   xmlns:dc="http://purl.org/dc/elements/1.1/"
   xmlns:cc="http://creativecommons.org/ns#"
   xmlns:rdf="http://www.w3.org/1999/02/22-rdf-syntax-ns#"
   xmlns:svg="http://www.w3.org/2000/svg"
   xmlns="http://www.w3.org/2000/svg"
   xmlns:sodipodi="http://sodipodi.sourceforge.net/DTD/sodipodi-0.dtd"
   xmlns:inkscape="http://www.inkscape.org/namespaces/inkscape"
   width="210mm"
   height="297mm"
   viewBox="0 0 210 297"
   version="1.1"
   id="svg5052"
   inkscape:version="0.92.3 (2405546, 2018-03-11)"
   sodipodi:docname="drawing.svg">
  <defs
     id="defs5046" />
  <sodipodi:namedview
     id="base"
     pagecolor="#ffffff"
     bordercolor="#666666"
     borderopacity="1.0"
     inkscape:pageopacity="0.0"
     inkscape:pageshadow="2"
     inkscape:zoom="0.49497475"
     inkscape:cx="-314.39329"
     inkscape:cy="578.34597"
     inkscape:document-units="mm"
     inkscape:current-layer="layer1"
     showgrid="false"
     inkscape:window-width="1853"
     inkscape:window-height="1025"
     inkscape:window-x="67"
     inkscape:window-y="27"
     inkscape:window-maximized="1" />
  <metadata
     id="metadata5049">
    <rdf:RDF>
      <cc:Work
         rdf:about="">
        <dc:format>image/svg+xml</dc:format>
        <dc:type
           rdf:resource="http://purl.org/dc/dcmitype/StillImage" />
        <dc:title></dc:title>
      </cc:Work>
    </rdf:RDF>
  </metadata>
  <g
     inkscape:label="Layer 1"
     inkscape:groupmode="layer"
     id="layer1">
    <path
       style="fill:#008000;stroke-width:0.48939225"
       d="m 94.912329,151.26779 c 0.78967,0.55552 4.14279,4.81481 4.14279,5.26237 0,0.22035 0.56838,1.82168 1.263081,3.55854 0.69471,1.73685 1.34848,3.60135 1.45284,4.14335 0.20766,1.0785 1.59588,2.80917 2.25332,2.80917 0.22742,0 0.4135,-0.62236 0.4135,-1.38302 0,-0.81282 0.46693,-1.82179 1.13255,-2.44722 1.03888,-0.97619 1.64157,-1.06422 7.28666,-1.06422 5.08617,0 6.52427,0.16802 8.28724,0.96814 1.3588,0.61671 3.20939,0.97205 5.09796,0.9789 1.67803,0.006 3.35117,0.29329 3.85495,0.66174 0.82151,0.60082 0.725,0.74688 -1.25215,1.89531 -1.17824,0.68436 -2.69275,1.40541 -3.36561,1.60232 -0.67285,0.19691 -2.14336,0.88579 -3.26784,1.53082 -1.12447,0.64504 -2.4117,1.17278 -2.86053,1.17278 -0.44883,0 -1.40052,0.30355 -2.1149,0.67455 -2.69959,1.402 -3.80883,1.75326 -5.94757,1.8834 l -2.20204,0.134 -0.1543,2.15862 c -0.13308,1.86189 0.0351,2.31946 1.22335,3.32866 0.7577,0.64352 2.08276,1.48775 2.94457,1.87607 0.86181,0.38832 2.16082,1.4505 2.88667,2.36037 1.00398,1.25853 2.17849,1.93263 4.90897,2.81753 2.88594,0.93528 3.58708,1.35501 3.57824,2.14209 -0.0111,0.9945 -1.75672,2.437 -4.86669,4.02173 -0.94198,0.48 -1.87447,1.09296 -2.0722,1.36215 -0.19773,0.26921 -0.36288,2.70492 -0.36701,5.41271 -0.005,3.56171 -0.20617,5.18602 -0.72594,5.87335 -0.39513,0.52254 -0.72681,1.61083 -0.73703,2.41841 -0.0103,0.80757 -0.34751,2.0992 -0.74957,2.87025 -0.40203,0.77106 -0.73099,1.79028 -0.73099,2.26493 0,0.47465 -0.33682,1.14263 -0.7485,1.48435 -1.14164,0.94769 -2.73538,-0.0318 -4.09526,-2.51688 -2.02075,-3.69273 -2.98568,-5.74709 -2.98568,-6.35658 0,-0.3235 -0.77071,0.20556 -1.71269,1.17571 -0.94199,0.97011 -1.71268,2.09537 -1.71268,2.50056 0,0.84437 -1.41811,3.03072 -4.047611,6.24037 -1.00346,1.22485 -1.82447,2.42835 -1.82447,2.67444 0,0.2461 -0.9424,1.54491 -2.09424,2.88627 -1.15183,1.34135 -2.35822,3.04451 -2.68087,3.78478 -0.32266,0.74029 -0.78984,1.34597 -1.03821,1.34597 -0.24835,0 -0.59816,-2.58793 -0.77734,-5.75097 -0.17918,-3.16304 -0.42911,-6.06518 -0.55541,-6.44921 -0.28629,-0.87054 -4.48835,3.11569 -6.66939,6.32684 -0.82277,1.21137 -2.13357,2.88298 -2.9129,3.71464 -0.77931,0.83168 -1.80381,2.59368 -2.27664,3.91558 -0.47284,1.32186 -1.06537,2.37683 -1.31675,2.34433 -1.00172,-0.12947 -2.20029,-3.33808 -2.4971,-6.68481 -0.17241,-1.94394 -0.53063,-3.80977 -0.79604,-4.14626 -0.63965,-0.81093 -2.39608,-0.77734 -3.55177,0.0679 -0.51116,0.37386 -1.16252,0.59026 -1.44746,0.48088 -0.28495,-0.10937 -1.71797,1.01639 -3.18449,2.50168 -1.46653,1.48528 -3.00423,2.70053 -3.41714,2.70055 -0.87342,5e-5 -5.888788,5.63852 -5.888788,6.62043 0,0.36489 -0.255657,0.82148 -0.568117,1.01463 -0.423952,0.26207 -0.487642,-0.78285 -0.250996,-4.11756 0.290114,-4.08795 0.237021,-4.51162 -0.623054,-4.97203 -1.50954,-0.80807 -2.260161,-0.6082 -4.693666,1.24973 -1.262828,0.96416 -3.046674,1.87484 -3.964082,2.02375 -0.917402,0.1489 -1.785756,0.46129 -1.929667,0.6942 -0.143918,0.23293 -1.019386,0.42348 -1.945481,0.42348 -1.428347,0 -1.683803,-0.16993 -1.683803,-1.12013 0,-0.61607 0.440401,-1.98413 0.978682,-3.04014 0.538269,-1.05601 0.97867,-2.65312 0.97867,-3.54912 0,-0.89597 0.440408,-2.49251 0.978683,-3.54784 0.538275,-1.05532 0.978676,-2.78404 0.978676,-3.84158 0,-1.81151 -0.09955,-1.94149 -1.719762,-2.24551 -0.94587,-0.17748 -4.243671,-0.27016 -7.328446,-0.20597 -3.084776,0.0642 -5.75582,-0.0304 -5.93565,-0.2103 -0.443295,-0.44339 1.074401,-4.31077 2.538616,-6.46888 0.654733,-0.96502 1.190432,-2.04052 1.190432,-2.39002 0,-0.3495 0.547662,-1.60615 1.217025,-2.79257 0.669356,-1.18642 1.374613,-2.4875 1.567235,-2.89128 0.687177,-1.44055 3.020128,-4.68147 4.024062,-5.59023 1.162942,-1.05264 1.316407,-1.75146 0.384661,-1.75146 -0.350049,0 -1.229142,-0.2753 -1.95354,-0.6118 -1.161627,-0.53959 -1.317539,-0.88972 -1.320912,-2.96633 l -0.0039,-2.35452 9.29804,0.15201 c 8.560599,0.13997 10.719047,-0.0647 8.410674,-0.7975 -0.487415,-0.15474 -1.616729,-1.0352 -2.50959,-1.9566 -1.458732,-1.50535 -1.649075,-2.03421 -1.876542,-5.21407 l -0.253139,-3.53877 4.597759,0.3435 c 6.99254,0.52242 12.18046,1.15485 21.84708,2.66326 l 2.56904,0.40089 0.10308,-4.92906 c 0.0567,-2.71099 0.0442,-6.08538 -0.0276,-7.49866 l -0.13072,-2.56958 h 2.90946 c 4.62641,0 5.18152,0.89607 6.3673,10.27834 0.30321,2.39917 0.37648,2.03925 0.67358,-3.30931 0.22901,-4.12261 0.56614,-6.33366 1.07694,-7.0631 0.40896,-0.584 0.88812,-2.3398 1.0648,-3.90175 0.17668,-1.56197 0.56846,-3.03693 0.87063,-3.27771 0.8823,-0.70303 2.46467,-1.0543 3.0127,-0.66878 z"
       id="path3946"
       inkscape:connector-curvature="0"
       inkscape:export-xdpi="96"
       inkscape:export-ydpi="96" />
    <path
       style="fill:#008000;stroke-width:0.48939225"
       d="m 146.96501,201.00195 c -0.78968,-0.55555 -4.1428,-4.8148 -4.1428,-5.26239 0,-0.22033 -0.56839,-1.82168 -1.26309,-3.55853 -0.6947,-1.73684 -1.34847,-3.60134 -1.45283,-4.14335 -0.20765,-1.0785 -1.59588,-2.80918 -2.25333,-2.80918 -0.22741,0 -0.41349,0.62237 -0.41349,1.38302 0,0.81282 -0.46693,1.8218 -1.13255,2.44726 -1.03889,0.97616 -1.64158,1.0642 -7.28665,1.0642 -5.08617,0 -6.52429,-0.16804 -8.28724,-0.96815 -1.3588,-0.61671 -3.20939,-0.97206 -5.09799,-0.97891 -1.67803,-0.006 -3.35116,-0.29328 -3.85493,-0.66174 -0.82151,-0.60081 -0.725,-0.74687 1.25215,-1.8953 1.17824,-0.68436 2.69275,-1.4054 3.36559,-1.60233 0.67286,-0.19692 2.14338,-0.88577 3.26787,-1.53079 1.12446,-0.64506 2.4117,-1.17279 2.86053,-1.17279 0.44882,0 1.40051,-0.30355 2.11489,-0.67456 2.6996,-1.40201 3.80883,-1.75326 5.94757,-1.88341 l 2.20204,-0.134 0.15429,-2.15862 c 0.1331,-1.86187 -0.0351,-2.31945 -1.22333,-3.32864 -0.75771,-0.64351 -2.08277,-1.48774 -2.94457,-1.87609 -0.86182,-0.3883 -2.16082,-1.45048 -2.88668,-2.36037 -1.00398,-1.25854 -2.17849,-1.93264 -4.90898,-2.81752 -2.88592,-0.93528 -3.58707,-1.35502 -3.57824,-2.14209 0.0111,-0.9945 1.75673,-2.43698 4.8667,-4.02172 0.94198,-0.48001 1.87447,-1.09298 2.0722,-1.36217 0.19773,-0.2692 0.36288,-2.70492 0.36701,-5.4127 0.005,-3.56169 0.20618,-5.18603 0.72595,-5.87334 0.39513,-0.52255 0.72679,-1.61085 0.73702,-2.4184 0.0103,-0.8076 0.34752,-2.09922 0.74957,-2.87027 0.40204,-0.77107 0.73099,-1.79028 0.73099,-2.26494 0,-0.47464 0.33682,-1.1426 0.74849,-1.48434 1.14166,-0.94768 2.7354,0.0318 4.09527,2.51687 2.02075,3.69275 2.98568,5.7471 2.98568,6.3566 0,0.3235 0.77071,-0.20557 1.71269,-1.17572 0.94198,-0.97012 1.71268,-2.09537 1.71268,-2.50056 0,-0.84436 1.4181,-3.03072 4.04761,-6.24035 1.00345,-1.22486 1.82447,-2.42836 1.82447,-2.67446 0,-0.2461 0.9424,-1.54491 2.09423,-2.88626 1.15183,-1.34135 2.35823,-3.0445 2.68088,-3.7848 0.32266,-0.74028 0.78984,-1.34596 1.0382,-1.34596 0.24836,0 0.59816,2.58793 0.77735,5.75097 0.17918,3.16304 0.42911,6.06517 0.55541,6.44921 0.2863,0.87054 4.48835,-3.11569 6.66939,-6.32685 0.82278,-1.21137 2.13357,-2.88296 2.9129,-3.71464 0.77932,-0.83168 1.80381,-2.59367 2.27664,-3.91555 0.47283,-1.32189 1.06537,-2.37684 1.31675,-2.34435 1.00173,0.12947 2.20031,3.33807 2.49711,6.6848 0.1724,1.94396 0.53061,3.80977 0.79603,4.14627 0.63965,0.81093 2.39607,0.77733 3.55177,-0.0679 0.51115,-0.37386 1.16251,-0.59025 1.44746,-0.48087 0.28495,0.10936 1.71797,-1.01639 3.18449,-2.50168 1.46652,-1.48528 3.00422,-2.70053 3.41713,-2.70054 0.87342,-4e-5 5.88879,-5.63854 5.88879,-6.62044 0,-0.3649 0.25566,-0.82148 0.56812,-1.01462 0.42394,-0.26209 0.48764,0.78285 0.25099,4.11755 -0.29011,4.08795 -0.23702,4.51163 0.62306,4.97203 1.50955,0.80807 2.26017,0.6082 4.69366,-1.24973 1.26284,-0.96414 3.04667,-1.87484 3.96408,-2.02374 0.91741,-0.14891 1.78576,-0.4613 1.92968,-0.69421 0.14392,-0.23293 1.01937,-0.42349 1.94547,-0.42349 1.42836,0 1.6838,0.16994 1.6838,1.12014 0,0.61606 -0.4404,1.98413 -0.97866,3.04014 -0.53829,1.05603 -0.97869,2.65311 -0.97869,3.54911 0,0.89598 -0.44042,2.49252 -0.97868,3.54784 -0.53828,1.05533 -0.97868,2.78404 -0.97868,3.8416 0,1.81149 0.0996,1.94148 1.71976,2.24549 0.94587,0.17749 4.24367,0.27018 7.32845,0.20598 3.08477,-0.0642 5.75581,0.0304 5.93565,0.21029 0.4433,0.4434 -1.07439,4.31078 -2.53862,6.46889 -0.65473,0.96501 -1.19043,2.04052 -1.19043,2.39002 0,0.34949 -0.54766,1.60616 -1.21701,2.79257 -0.66937,1.18642 -1.37462,2.48749 -1.56725,2.8913 -0.68717,1.44053 -3.02012,4.68146 -4.02405,5.5902 -1.16295,1.05267 -1.31642,1.75146 -0.38467,1.75146 0.35004,0 1.22914,0.2753 1.95355,0.6118 1.16161,0.5396 1.31753,0.88973 1.3209,2.96635 l 0.004,2.35452 -9.29806,-0.15204 c -8.56058,-0.13997 -10.71903,0.0647 -8.41067,0.79752 0.48742,0.15472 1.61673,1.03521 2.5096,1.9566 1.45875,1.50537 1.64907,2.0342 1.87653,5.21405 l 0.25315,3.53878 -4.59776,-0.3435 c -6.99254,-0.5224 -12.18045,-1.15484 -21.84707,-2.66324 l -2.56903,-0.40087 -0.10309,4.92904 c -0.0567,2.71098 -0.0442,6.08536 0.0276,7.49865 l 0.13072,2.56958 h -2.90946 c -4.62642,0 -5.18153,-0.89607 -6.36729,-10.27834 -0.30323,-2.39918 -0.37648,-2.03927 -0.67359,3.30931 -0.22901,4.12264 -0.56614,6.33366 -1.07694,7.0631 -0.40896,0.58402 -0.88812,2.33979 -1.0648,3.90176 -0.17668,1.56197 -0.56847,3.03692 -0.87063,3.27771 -0.8823,0.70304 -2.46466,1.05428 -3.0127,0.66878 z"
       id="path3946-5"
       inkscape:connector-curvature="0"
       inkscape:export-xdpi="96"
       inkscape:export-ydpi="96" />
    <path
       style="fill:#008000;stroke-width:0.48939225"
       d="m 129.23677,134.73972 c -0.78968,-0.55553 -4.14279,-4.8148 -4.14279,-5.26237 0,-0.22035 -0.56839,-1.82169 -1.2631,-3.55853 -0.6947,-1.73685 -1.34847,-3.60136 -1.45282,-4.14336 -0.20766,-1.0785 -1.59588,-2.80917 -2.25333,-2.80917 -0.22741,0 -0.41349,0.62237 -0.41349,1.38302 0,0.81281 -0.46693,1.82179 -1.13255,2.44724 -1.03889,0.97617 -1.64158,1.0642 -7.28666,1.0642 -5.08617,0 -6.52428,-0.16802 -8.28724,-0.96815 -1.3588,-0.6167 -3.209381,-0.97204 -5.097971,-0.97889 -1.67803,-0.006 -3.35117,-0.29329 -3.85493,-0.66174 -0.82152,-0.60082 -0.72501,-0.74688 1.25214,-1.89529 1.17824,-0.68438 2.69276,-1.40543 3.3656,-1.60234 0.67286,-0.19692 2.143371,-0.88577 3.267851,-1.53081 1.12447,-0.64504 2.41171,-1.17279 2.86053,-1.17279 0.44883,0 1.40051,-0.30354 2.1149,-0.67455 2.69959,-1.402 3.80883,-1.75325 5.94757,-1.88341 l 2.20203,-0.13399 0.1543,-2.15862 c 0.1331,-1.86189 -0.0351,-2.31945 -1.22333,-3.32864 -0.75771,-0.64353 -2.08277,-1.48776 -2.94458,-1.87609 -0.86181,-0.38831 -2.16082,-1.45048 -2.88667,-2.36037 -1.00398,-1.25854 -2.17849,-1.93264 -4.90897,-2.817532 -2.88594,-0.93528 -3.587081,-1.35502 -3.578241,-2.14209 0.0111,-0.9945 1.756721,-2.43698 4.866691,-4.02171 0.94197,-0.48002 1.87446,-1.09298 2.0722,-1.36218 0.19772,-0.2692 0.36289,-2.70491 0.36701,-5.4127 0.005,-3.56169 0.20617,-5.18603 0.72594,-5.87334 0.39513,-0.52255 0.7268,-1.61084 0.73702,-2.41841 0.0103,-0.80758 0.34752,-2.09921 0.74958,-2.87026 0.40203,-0.77106 0.73098,-1.79028 0.73098,-2.26494 0,-0.47465 0.33683,-1.1426 0.74851,-1.48434 1.14164,-0.94768 2.73538,0.0318 4.09525,2.51687 2.02076,3.69275 2.98569,5.74711 2.98569,6.35661 0,0.32349 0.77071,-0.20558 1.71269,-1.17572 0.94198,-0.97012 1.71268,-2.09538 1.71268,-2.50057 0,-0.84436 1.4181,-3.03072 4.04761,-6.24035 1.00345,-1.22486 1.82446,-2.42837 1.82446,-2.67446 0,-0.2461 0.94241,-1.54491 2.09424,-2.88626 1.15183,-1.34135 2.35823,-3.0445 2.68087,-3.7848 0.32267,-0.74028 0.78985,-1.34596 1.03821,-1.34596 0.24836,0 0.59816,2.58793 0.77735,5.75097 0.17918,3.16304 0.42911,6.06517 0.55541,6.44921 0.2863,0.87054 4.48835,-3.11569 6.66939,-6.32685 0.82278,-1.21137 2.13357,-2.88296 2.91289,-3.71464 0.77933,-0.83168 1.80382,-2.59367 2.27665,-3.91556 0.47283,-1.32188 1.06537,-2.37683 1.31675,-2.34435 1.00173,0.12947 2.2003,3.33808 2.49711,6.68481 0.1724,1.94396 0.53061,3.80977 0.79603,4.14627 0.63965,0.81093 2.39607,0.77733 3.55177,-0.0679 0.51115,-0.37386 1.16251,-0.59025 1.44746,-0.48087 0.28494,0.10936 1.71797,-1.01639 3.18449,-2.50168 1.46653,-1.48528 3.00423,-2.70053 3.41714,-2.70054 0.87342,-4e-5 5.88879,-5.63854 5.88879,-6.62044 0,-0.3649 0.25565,-0.82147 0.56812,-1.01462 0.42394,-0.26209 0.48763,0.78285 0.25099,4.11754 -0.29011,4.08796 -0.23702,4.51164 0.62306,4.97204 1.50955,0.80806 2.26015,0.6082 4.69366,-1.24973 1.26283,-0.96414 3.04667,-1.87484 3.96409,-2.02374 0.9174,-0.14891 1.78574,-0.4613 1.92966,-0.69422 0.14391,-0.23292 1.01939,-0.42348 1.94549,-0.42348 1.42833,0 1.68378,0.16993 1.68378,1.12014 0,0.61606 -0.44038,1.98413 -0.97866,3.04014 -0.53829,1.05603 -0.97869,2.65311 -0.97869,3.54911 0,0.89598 -0.4404,2.49252 -0.97866,3.54784 -0.53828,1.05533 -0.97868,2.78404 -0.97868,3.8416 0,1.81149 0.0995,1.94148 1.71976,2.24549 0.94585,0.1775 4.24365,0.27018 7.32843,0.20598 3.08476,-0.0642 5.75583,0.0304 5.93566,0.2103 0.44331,0.44339 -1.0744,4.31077 -2.53862,6.46888 -0.65474,0.96501 -1.19042,2.04052 -1.19042,2.39002 0,0.3495 -0.54766,1.60616 -1.21703,2.79257 -0.66937,1.18642 -1.37462,2.48749 -1.56725,2.8913 -0.68717,1.44053 -3.02012,4.68146 -4.02403,5.5902 -1.16297,1.05267 -1.31645,1.75146 -0.38469,1.75146 0.35006,0 1.22916,0.2753 1.95354,0.61181 1.16161,0.53959 1.31756,0.88972 1.32093,2.966342 l 0.004,2.35453 -9.29804,-0.15204 c -8.56059,-0.13997 -10.71904,0.0647 -8.41068,0.79752 0.48742,0.15472 1.61672,1.0352 2.50961,1.9566 1.45873,1.50535 1.64906,2.0342 1.87652,5.21405 l 0.25315,3.53878 -4.59777,-0.34351 c -6.99252,-0.52241 -12.18045,-1.15483 -21.84707,-2.66325 l -2.56903,-0.40087 -0.10309,4.92905 c -0.0567,2.71099 -0.0442,6.08537 0.0276,7.49865 l 0.13072,2.56958 h -2.90953 c -4.62641,0 -5.18152,-0.89607 -6.36729,-10.27834 -0.30322,-2.39917 -0.37648,-2.03926 -0.67359,3.30932 -0.22901,4.12262 -0.56613,6.33366 -1.07693,7.06308 -0.40897,0.58402 -0.88813,2.3398 -1.06482,3.90176 -0.17666,1.56197 -0.56845,3.03694 -0.87062,3.27772 -0.88229,0.70304 -2.46466,1.05429 -3.0127,0.66877 z"
       id="path3946-1"
       inkscape:connector-curvature="0"
       inkscape:export-xdpi="96"
       inkscape:export-ydpi="96" />
    <path
       style="fill:#008000;stroke-width:0.48939225"
       d="m 150.14907,274.01577 c -0.78968,-0.55552 -4.1428,-4.81481 -4.1428,-5.26236 0,-0.22035 -0.56839,-1.8217 -1.26309,-3.55855 -0.6947,-1.73685 -1.34847,-3.60136 -1.45282,-4.14335 -0.20766,-1.07851 -1.59589,-2.80916 -2.25334,-2.80916 -0.2274,0 -0.41349,0.62235 -0.41349,1.38302 0,0.8128 -0.46694,1.82177 -1.13255,2.44722 -1.03888,0.97618 -1.64158,1.0642 -7.28665,1.0642 -5.08618,0 -6.52429,-0.16802 -8.28725,-0.96813 -1.3588,-0.6167 -3.20939,-0.97204 -5.09797,-0.97889 -1.67802,-0.006 -3.35116,-0.29331 -3.85494,-0.66174 -0.82151,-0.60084 -0.725,-0.74689 1.25215,-1.89532 1.17824,-0.68436 2.69276,-1.40541 3.36561,-1.60233 0.67284,-0.1969 2.14336,-0.88577 3.26784,-1.5308 1.12447,-0.64504 2.4117,-1.1728 2.86054,-1.1728 0.44883,0 1.40052,-0.30353 2.11489,-0.67454 2.6996,-1.40199 3.80883,-1.75326 5.94757,-1.88339 l 2.20203,-0.13402 0.15431,-2.1586 c 0.13308,-1.86189 -0.0351,-2.31946 -1.22335,-3.32866 -0.75771,-0.64353 -2.08275,-1.48776 -2.94458,-1.87607 -0.8618,-0.38834 -2.16081,-1.4505 -2.88666,-2.36039 -1.00398,-1.25852 -2.17849,-1.93264 -4.90898,-2.81751 -2.88593,-0.93528 -3.58707,-1.35503 -3.57823,-2.14209 0.0111,-0.99452 1.75672,-2.437 4.86669,-4.02173 0.94198,-0.48 1.87448,-1.09298 2.0722,-1.36217 0.19773,-0.26919 0.36288,-2.70492 0.36701,-5.41271 0.005,-3.56169 0.20618,-5.18601 0.72595,-5.87334 0.39513,-0.52254 0.72679,-1.61084 0.73701,-2.4184 0.0103,-0.80759 0.34753,-2.0992 0.74958,-2.87027 0.40203,-0.77106 0.73099,-1.79028 0.73099,-2.26494 0,-0.47464 0.33682,-1.14261 0.7485,-1.48434 1.14164,-0.94767 2.73538,0.0318 4.09526,2.51688 2.02075,3.69274 2.98568,5.7471 2.98568,6.3566 0,0.32349 0.77071,-0.20558 1.71269,-1.1757 0.94198,-0.97014 1.71268,-2.0954 1.71268,-2.50059 0,-0.84437 1.41811,-3.0307 4.0476,-6.24035 1.00347,-1.22486 1.82448,-2.42836 1.82448,-2.67446 0,-0.2461 0.94241,-1.5449 2.09424,-2.88626 1.15183,-1.34134 2.35822,-3.0445 2.68087,-3.78478 0.32266,-0.7403 0.78985,-1.34598 1.03821,-1.34598 0.24835,0 0.59815,2.58793 0.77734,5.75097 0.17918,3.16304 0.42912,6.06518 0.55541,6.44922 0.2863,0.87053 4.48836,-3.1157 6.6694,-6.32685 0.82277,-1.21138 2.13357,-2.88296 2.91289,-3.71465 0.77933,-0.83167 1.80382,-2.59367 2.27665,-3.91555 0.47283,-1.32188 1.06537,-2.37683 1.31675,-2.34435 1.00172,0.12947 2.2003,3.33807 2.4971,6.68481 0.1724,1.94396 0.53062,3.80976 0.79604,4.14626 0.63964,0.81093 2.39607,0.77735 3.55177,-0.0679 0.51116,-0.37386 1.16251,-0.59024 1.44746,-0.48088 0.28494,0.10937 1.71796,-1.01639 3.18449,-2.50168 1.46652,-1.48528 3.00423,-2.70053 3.41712,-2.70054 0.87344,-4e-5 5.88881,-5.63852 5.88881,-6.62044 0,-0.36488 0.25565,-0.82146 0.56812,-1.01463 0.42394,-0.26205 0.48763,0.78287 0.25099,4.11756 -0.29011,4.08797 -0.23702,4.51163 0.62304,4.97203 1.50955,0.80807 2.26017,0.6082 4.69368,-1.24973 1.26283,-0.96414 3.04666,-1.87484 3.96408,-2.02374 0.91739,-0.14891 1.78575,-0.4613 1.92966,-0.69421 0.14392,-0.23293 1.01939,-0.42349 1.94549,-0.42349 1.42833,0 1.6838,0.16996 1.6838,1.12014 0,0.61607 -0.4404,1.98413 -0.97868,3.04015 -0.53827,1.05603 -0.97867,2.65311 -0.97867,3.5491 0,0.89598 -0.44042,2.49252 -0.97868,3.54784 -0.53828,1.05533 -0.97868,2.78405 -0.97868,3.84159 0,1.8115 0.0996,1.94149 1.71976,2.2455 0.94586,0.1775 4.24366,0.27019 7.32844,0.20598 3.08478,-0.0642 5.75582,0.0304 5.93565,0.21032 0.44329,0.44339 -1.0744,4.31075 -2.53862,6.46886 -0.65472,0.96502 -1.19042,2.04054 -1.19042,2.39002 0,0.3495 -0.54766,1.60616 -1.21703,2.79259 -0.66936,1.18641 -1.37461,2.48748 -1.56723,2.89128 -0.68719,1.44054 -3.02012,4.68146 -4.02407,5.5902 -1.16294,1.05268 -1.31641,1.75146 -0.38465,1.75146 0.35004,0 1.22912,0.27533 1.95352,0.61182 1.16164,0.53958 1.31756,0.88973 1.32091,2.96633 l 0.004,2.35453 -9.29804,-0.15202 c -8.56058,-0.13997 -10.71905,0.0647 -8.41067,0.7975 0.48742,0.15472 1.61673,1.0352 2.5096,1.9566 1.45872,1.50535 1.64907,2.03422 1.87653,5.21407 l 0.25315,3.53876 -4.59777,-0.3435 c -6.99255,-0.5224 -12.18045,-1.15482 -21.84708,-2.66326 l -2.56904,-0.40087 -0.10308,4.92906 c -0.0567,2.71098 -0.0442,6.08536 0.0276,7.49864 l 0.13072,2.56958 h -2.90947 c -4.6264,0 -5.18151,-0.89607 -6.36729,-10.27834 -0.30321,-2.39917 -0.37647,-2.03926 -0.67358,3.30934 -0.22901,4.12261 -0.56614,6.33364 -1.07694,7.06308 -0.40897,0.584 -0.88813,2.3398 -1.06481,3.90175 -0.17668,1.56196 -0.56846,3.03693 -0.87063,3.27771 -0.88229,0.70304 -2.46466,1.05429 -3.01269,0.66878 z"
       id="path3946-2"
       inkscape:connector-curvature="0"
       inkscape:export-xdpi="96"
       inkscape:export-ydpi="96" />
    <path
       style="fill:#008000;stroke-width:0.48939225"
       d="m 72.587049,86.163248 c 0.78967,0.55552 4.14281,4.8148 4.14281,5.26236 0,0.22035 0.56839,1.82169 1.26308,3.55854 0.6947,1.73685 1.34847,3.60136 1.45282,4.14335 0.20766,1.078512 1.59588,2.809172 2.25334,2.809172 0.2274,0 0.41348,-0.62236 0.41348,-1.38302 0,-0.812812 0.46695,-1.821782 1.13255,-2.447222 1.03889,-0.97619 1.6416,-1.06421 7.28666,-1.06421 5.08618,0 6.52429,0.16801 8.28724,0.96814 1.358801,0.6167 3.209401,0.97204 5.097981,0.97889 1.67801,0.006 3.35117,0.2933 3.85493,0.66174 0.82151,0.600832 0.725,0.746882 -1.25215,1.895312 -1.17824,0.68436 -2.69274,1.40541 -3.36559,1.60233 -0.67285,0.19691 -2.14336,0.88578 -3.267861,1.53081 -1.12445,0.64503 -2.4117,1.17279 -2.86053,1.17279 -0.44883,0 -1.40052,0.30354 -2.11489,0.67454 -2.6996,1.402 -3.80883,1.75326 -5.94756,1.88341 l -2.20205,0.13399 -0.1543,2.15862 c -0.13309,1.86189 0.0351,2.31946 1.22334,3.32866 0.75772,0.64352 2.08276,1.48775 2.94458,1.87607 0.86181,0.38832 2.16081,1.45049 2.88668,2.36038 1.00396,1.25852 2.17848,1.93264 4.90897,2.81752 2.885921,0.93528 3.587071,1.35502 3.578241,2.14209 -0.0111,0.99451 -1.75673,2.43699 -4.866691,4.02173 -0.942,0.47999 -1.87449,1.09297 -2.0722,1.36216 -0.19775,0.2692 -0.3629,2.70492 -0.36703,5.41271 -0.005,3.56169 -0.20617,5.18602 -0.72594,5.87334 -0.39513,0.52254 -0.72679,1.61083 -0.73701,2.41842 -0.0103,0.80757 -0.34753,2.09919 -0.74959,2.87025 -0.40203,0.77105 -0.73099,1.79027 -0.73099,2.26493 0,0.47466 -0.33681,1.14262 -0.74849,1.48435 -1.14164,0.94769 -2.73538,-0.0318 -4.09526,-2.51687 -2.02074,-3.69275 -2.98569,-5.74711 -2.98569,-6.3566 0,-0.3235 -0.77071,0.20557 -1.71269,1.1757 -0.94196,0.97013 -1.71268,2.09539 -1.71268,2.50058 0,0.84436 -1.4181,3.03071 -4.04759,6.24036 -1.00347,1.22485 -1.82448,2.42836 -1.82448,2.67444 0,0.24611 -0.94241,1.54492 -2.09424,2.88627 -1.15183,1.34135 -2.35822,3.0445 -2.68087,3.78479 -0.32265,0.74028 -0.78985,1.34597 -1.03821,1.34597 -0.24835,0 -0.59816,-2.58794 -0.77734,-5.75097 -0.17918,-3.16304 -0.42912,-6.06519 -0.55541,-6.44921 -0.2863,-0.87055 -4.48836,3.11569 -6.66939,6.32684 -0.82278,1.21138 -2.13358,2.88297 -2.912899,3.71465 -0.779322,0.83167 -1.803816,2.59368 -2.276647,3.91555 -0.472826,1.32188 -1.065372,2.37684 -1.31675,2.34435 -1.001721,-0.12947 -2.200297,-3.33807 -2.497104,-6.6848 -0.172399,-1.94396 -0.530617,-3.80978 -0.796036,-4.14627 -0.639645,-0.81093 -2.396071,-0.77735 -3.551769,0.0679 -0.511159,0.37385 -1.162514,0.59024 -1.447462,0.48087 -0.284942,-0.10937 -1.717962,1.01638 -3.184488,2.50167 -1.466525,1.48529 -3.00423,2.70054 -3.417133,2.70056 -0.873423,3e-5 -5.888791,5.63852 -5.888791,6.62043 0,0.36488 -0.255657,0.82147 -0.568117,1.01461 -0.423952,0.26209 -0.487642,-0.78284 -0.250996,-4.11754 0.290114,-4.08796 0.237021,-4.51163 -0.623054,-4.97203 -1.509547,-0.80806 -2.260161,-0.60821 -4.693666,1.24972 -1.262835,0.96416 -3.046674,1.87484 -3.964082,2.02375 -0.917402,0.14891 -1.785756,0.4613 -1.929667,0.69421 -0.143918,0.23292 -1.019386,0.42348 -1.945481,0.42348 -1.428347,0 -1.683804,-0.16994 -1.683804,-1.12012 0,-0.61607 0.440402,-1.98414 0.978677,-3.04016 0.538275,-1.05602 0.978676,-2.65311 0.978676,-3.5491 0,-0.89598 0.440408,-2.49252 0.978683,-3.54785 0.538275,-1.05533 0.978676,-2.78404 0.978676,-3.84158 0,-1.8115 -0.09956,-1.9415 -1.719762,-2.24551 -0.94587,-0.17748 -4.243671,-0.27017 -7.328446,-0.20597 -3.084776,0.0642 -5.75582,-0.0304 -5.935651,-0.21031 -0.443294,-0.44338 1.074402,-4.31076 2.538616,-6.46888 0.654734,-0.96501 1.190433,-2.04052 1.190433,-2.39002 0,-0.34949 0.547661,-1.60615 1.217024,-2.79257 0.669357,-1.18642 1.374614,-2.48749 1.567235,-2.89129 0.687178,-1.44054 3.020129,-4.68146 4.024063,-5.5902 1.162941,-1.05267 1.316407,-1.75147 0.384661,-1.75147 -0.350049,0 -1.229142,-0.27531 -1.95354,-0.61181 -1.161627,-0.53958 -1.317539,-0.88973 -1.320912,-2.96633 l -0.0039,-2.35452 9.29804,0.15202 c 8.560592,0.13996 10.719053,-0.0647 8.410681,-0.7975 -0.487416,-0.15473 -1.616736,-1.03521 -2.509604,-1.95661 -1.458719,-1.50535 -1.649062,-2.03421 -1.876535,-5.21406 l -0.253146,-3.53877 4.597766,0.3435 c 6.992542,0.52241 12.180458,1.15484 21.847086,2.66325 l 2.569034,0.40089 0.103085,-4.92907 c 0.0567,-2.71098 0.04421,-6.085372 -0.02764,-7.498642 l -0.130725,-2.56958 h 2.909461 c 4.62641,0 5.18152,0.89607 6.3673,10.278342 0.30321,2.39917 0.37648,2.03926 0.67358,-3.30932 0.22901,-4.122612 0.56614,-6.333662 1.07694,-7.063092 0.40896,-0.58401 0.88812,-2.3398 1.0648,-3.90176 0.17668,-1.56196 0.56846,-3.03693 0.87063,-3.27771 0.88229,-0.70303 2.46466,-1.0543 3.01269,-0.66877 z"
       id="path3946-7"
       inkscape:connector-curvature="0"
       inkscape:export-xdpi="96"
       inkscape:export-ydpi="96" />
    <path
       style="fill:#008000;stroke-width:0.48939225"
       d="m 108.00421,215.47679 c 0.78968,0.5555 4.14281,4.81479 4.14281,5.26235 0,0.22034 0.56839,1.82169 1.26309,3.55855 0.6947,1.73683 1.34847,3.60134 1.45282,4.14335 0.20766,1.07848 1.59587,2.80916 2.25334,2.80916 0.2274,0 0.41349,-0.62235 0.41349,-1.38302 0,-0.81282 0.46694,-1.82179 1.13255,-2.44722 1.03888,-0.97619 1.64158,-1.06421 7.28665,-1.06421 5.08618,0 6.52429,0.16801 8.28724,0.96813 1.3588,0.61671 3.2094,0.97205 5.09798,0.9789 1.67801,0.006 3.35116,0.29329 3.85494,0.66174 0.8215,0.60082 0.725,0.74689 -1.25216,1.8953 -1.17823,0.68437 -2.69275,1.40543 -3.3656,1.60235 -0.67284,0.19689 -2.14336,0.88577 -3.26785,1.5308 -1.12446,0.64503 -2.41169,1.17277 -2.86053,1.17277 -0.44883,0 -1.40052,0.30356 -2.11489,0.67456 -2.6996,1.402 -3.80883,1.75326 -5.94757,1.8834 l -2.20204,0.134 -0.1543,2.15862 c -0.13308,1.86188 0.0351,2.31946 1.22334,3.32866 0.75772,0.64352 2.08276,1.48775 2.94458,1.87607 0.86181,0.38831 2.1608,1.45049 2.88667,2.36038 1.00396,1.25852 2.17849,1.93264 4.90898,2.81752 2.88592,0.93527 3.58707,1.35501 3.57823,2.14209 -0.0111,0.99451 -1.75672,2.43699 -4.86669,4.02173 -0.94199,0.48 -1.87448,1.09298 -2.0722,1.36217 -0.19773,0.26919 -0.36288,2.70492 -0.36702,5.41269 -0.005,3.56171 -0.20617,5.18602 -0.72594,5.87335 -0.39513,0.52254 -0.72679,1.61083 -0.73701,2.41841 -0.0103,0.80759 -0.34753,2.0992 -0.74959,2.87026 -0.40203,0.77105 -0.73098,1.79028 -0.73098,2.26494 0,0.47465 -0.33683,1.1426 -0.7485,1.48434 -1.14164,0.94768 -2.73538,-0.0318 -4.09526,-2.51688 -2.02075,-3.69274 -2.98569,-5.74711 -2.98569,-6.3566 0,-0.32349 -0.77071,0.20559 -1.71268,1.17571 -0.94198,0.97014 -1.71268,2.09539 -1.71268,2.50059 0,0.84436 -1.41811,3.03069 -4.04761,6.24035 -1.00347,1.22485 -1.82447,2.42836 -1.82447,2.67446 0,0.24609 -0.94241,1.5449 -2.09425,2.88626 -1.15182,1.34133 -2.35821,3.04449 -2.68087,3.78477 -0.32265,0.7403 -0.78985,1.34599 -1.03821,1.34599 -0.24834,0 -0.59815,-2.58796 -0.77733,-5.75099 -0.17918,-3.16303 -0.42912,-6.06518 -0.55541,-6.4492 -0.28631,-0.87056 -4.488361,3.1157 -6.669401,6.32685 -0.82277,1.21137 -2.13357,2.88296 -2.91289,3.71464 -0.77933,0.83167 -1.80382,2.59367 -2.27665,3.91555 -0.47283,1.32188 -1.06537,2.37684 -1.31675,2.34436 -1.00172,-0.12947 -2.2003,-3.33809 -2.49711,-6.68482 -0.1724,-1.94395 -0.53061,-3.80976 -0.79603,-4.14625 -0.63964,-0.81093 -2.39607,-0.77736 -3.55177,0.0679 -0.51116,0.37384 -1.16252,0.59024 -1.44746,0.48087 -0.28495,-0.10936 -1.71797,1.01638 -3.18449,2.50168 -1.46653,1.48527 -3.00423,2.70054 -3.41714,2.70055 -0.87341,3e-5 -5.88879,5.63853 -5.88879,6.62043 0,0.36488 -0.25565,0.82148 -0.56811,1.01463 -0.42396,0.26206 -0.48765,-0.78285 -0.251,-4.11756 0.29011,-4.08797 0.23702,-4.51163 -0.62305,-4.97202 -1.50955,-0.80807 -2.26016,-0.60823 -4.69367,1.24971 -1.26283,0.96416 -3.04667,1.87485 -3.96408,2.02375 -0.917403,0.14892 -1.785757,0.46131 -1.929668,0.69422 -0.143918,0.23291 -1.019386,0.42346 -1.945481,0.42346 -1.428347,0 -1.683798,-0.16994 -1.683798,-1.12011 0,-0.61607 0.440395,-1.98413 0.97867,-3.04016 0.538275,-1.05602 0.978677,-2.65312 0.978677,-3.5491 0,-0.89597 0.440407,-2.49251 0.978683,-3.54784 0.538275,-1.05533 0.978676,-2.78406 0.978676,-3.8416 0,-1.81149 -0.09956,-1.94148 -1.719762,-2.24551 -0.945864,-0.17747 -4.243671,-0.27017 -7.328447,-0.20596 -3.084775,0.0642 -5.755819,-0.0304 -5.93565,-0.21031 -0.443295,-0.44339 1.074408,-4.31075 2.538616,-6.46886 0.654734,-0.96502 1.190433,-2.04053 1.190433,-2.39003 0,-0.34949 0.547667,-1.60616 1.217024,-2.79258 0.669357,-1.18642 1.374613,-2.4875 1.567235,-2.89128 0.687177,-1.44055 3.020128,-4.68146 4.024069,-5.59021 1.162935,-1.05267 1.316401,-1.75148 0.384655,-1.75148 -0.350049,0 -1.229143,-0.2753 -1.95354,-0.6118 -1.161628,-0.5396 -1.317533,-0.88972 -1.320912,-2.96633 l -0.0039,-2.35452 9.29804,0.15201 c 8.56059,0.13997 10.71904,-0.0647 8.41067,-0.7975 -0.48742,-0.15472 -1.61673,-1.0352 -2.5096,-1.9566 -1.45872,-1.50535 -1.64907,-2.03422 -1.87653,-5.21406 l -0.25315,-3.53877 4.59777,0.34351 c 6.99255,0.52239 12.18046,1.15484 21.84708,2.66323 l 2.56904,0.40089 0.10308,-4.92906 c 0.0567,-2.71098 0.0442,-6.08537 -0.0276,-7.49865 l -0.13072,-2.56959 h 2.90947 c 4.62641,0 5.181511,0.89609 6.367291,10.27835 0.30321,2.39918 0.37648,2.03927 0.67358,-3.30932 0.22901,-4.12261 0.56614,-6.33365 1.07694,-7.06309 0.40896,-0.584 0.88813,-2.3398 1.0648,-3.90176 0.17668,-1.56194 0.56846,-3.03692 0.87064,-3.2777 0.88229,-0.70303 2.46466,-1.05429 3.01269,-0.66876 z"
       id="path3946-0"
       inkscape:connector-curvature="0"
       inkscape:export-xdpi="96"
       inkscape:export-ydpi="96" />
    <path
       style="fill:#008000;stroke-width:0.52158511"
       d="m 129.29976,290.65176 c 0.40037,-1.04252 -1.15912,-2.17731 -4.38634,-3.19182 -4.48155,-1.40881 -9.04062,-5.91104 -8.20121,-8.09899 0.19556,-0.50972 -0.23586,-1.05706 -1.24431,-1.57867 -0.84901,-0.43913 -1.68208,-1.15921 -1.85125,-1.60018 -0.16918,-0.44097 -0.78435,-0.80176 -1.36703,-0.80176 -0.59402,0 -1.05943,-0.34373 -1.05943,-0.78246 0,-0.43034 -0.41071,-1.25194 -0.91268,-1.82575 l -1.82534,-2.08656 c -0.50198,-0.5738 -0.80958,-1.04328 -0.68358,-1.04328 0.12602,0 -0.13705,-1.07488 -0.58459,-2.38862 -0.9002,-2.6425 -0.8162,-2.79601 2.18085,-3.98528 5.23009,-2.07542 11.19176,-4.8211 12.32097,-5.67454 1.73373,-1.31033 0.85628,-1.95741 -3.21705,-2.37249 -1.85191,-0.18871 -4.27669,-0.65966 -5.38841,-1.04652 -1.11172,-0.38688 -3.51728,-0.70342 -5.34568,-0.70342 h -3.32437 l -0.007,-2.21697 c -0.004,-1.21934 -0.14864,-2.74513 -0.32159,-3.39066 -0.23419,-0.87405 -0.0922,-1.17371 0.55615,-1.17371 0.77918,0 0.85403,-0.76693 0.71273,-7.30381 -0.0868,-4.0171 -0.0155,-7.30344 0.15843,-7.30297 0.45214,0.002 0.51584,-1.32338 0.78251,-16.27072 0.22314,-12.50729 0.30411,-13.42315 1.2122,-13.71142 1.85429,-0.58867 5.25116,-3.41306 5.25116,-4.3662 0,-0.69901 -0.9607,-1.3346 -3.55771,-2.35371 -2.10827,-0.82733 -4.27468,-2.136 -5.31759,-3.21226 -0.96794,-0.99887 -1.56778,-1.81614 -1.33297,-1.81614 0.23482,0 0.20607,-0.29342 -0.0638,-0.65204 -0.26994,-0.35864 -0.53363,-1.33253 -0.58597,-2.16423 -0.0523,-0.83171 -0.32563,-1.78993 -0.60728,-2.12937 -0.81976,-0.98796 0.46383,-2.09975 3.90321,-3.38077 1.72105,-0.64101 5.5559,-2.32527 8.52188,-3.74278 6.14467,-2.9367 5.15047,5.38724 -0.0183,4.85069 -1.62925,-0.16912 -3.04811,-0.45782 -4.50752,-0.88064 -1.45941,-0.4228 -4.43865,-10.1583 -6.77988,-10.1583 -3.01535,0 -4.279944,-0.19016 -4.336207,-0.65204 -0.21304,-1.74882 -1.022527,-4.04273 -1.426583,-4.04273 -0.187734,0 -0.336363,-1.64315 -0.330322,-3.65145 0.0068,-2.19972 -0.205809,-3.65146 -0.534328,-3.65148 -0.299919,-2e-5 -0.60322,-0.86013 -0.674002,-1.91136 -0.07084,-1.05123 -0.288168,-2.16623 -0.483073,-2.4778 -0.484369,-0.77423 -0.692692,-1.853 -0.702222,-3.63606 -0.0049,-0.82757 -0.315257,-1.81195 -0.690753,-2.18752 -0.375486,-0.37558 -0.568024,-1.28297 -0.427842,-2.01642 0.140171,-0.73345 0.05155,-1.33545 -0.197079,-1.33777 -0.248567,-0.002 -0.484729,-1.41419 -0.524778,-3.13747 -0.04005,-1.72327 -0.360383,-3.47976 -0.71182,-3.90329 -0.351418,-0.42354 -0.533792,-1.48678 -0.405255,-2.36275 0.128537,-0.87596 0.05486,-1.70323 -0.163792,-1.83839 -0.218623,-0.13514 -0.293819,-1.3047 -0.167105,-2.59903 0.167378,-1.70956 0.02865,-2.43075 -0.507209,-2.63643 -0.852703,-0.32728 -1.341711,-1.71697 -1.615506,-4.59113 -0.106505,-1.11805 -0.403501,-2.17437 -0.65998,-2.34738 -0.483326,-0.32604 -1.28685,-2.01124 -1.393589,-2.92278 -0.189058,-1.61426 -1.063101,-2.98653 -2.170462,-3.40764 -1.860535,-0.70752 -1.53717,-1.43287 0.935657,-2.09889 2.481869,-0.66843 -9.825583,2.96068 -9.343923,2.18118 0.489105,-0.79155 9.966893,-8.20283 7.480726,-8.22812 -1.237934,-0.0126 6.29176,-1.62809 5.1444,-2.06267 -1.14737,-0.43457 -4.241347,2.21341 -6.508521,1.05592 l -4.813531,-2.45749 0.201327,-3.56397 c 0.150588,-2.665446 0.0228,-3.632508 -0.506995,-3.835832 -0.425748,-0.163421 -0.671255,-0.948587 -0.61543,-1.968209 0.05106,-0.932986 0.03976,-1.872384 -0.02514,-2.087558 -0.0649,-0.215183 -0.176703,-0.625973 -0.248402,-0.912874 -0.07172,-0.28691 -0.189068,-0.63901 -0.260766,-0.782466 -0.07172,-0.143455 -0.189069,-0.495555 -0.260757,-0.782456 -0.07172,-0.286911 -0.189079,-0.639011 -0.260767,-0.782466 -0.07172,-0.143456 -0.189069,-0.495556 -0.260767,-0.782457 -0.07172,-0.286901 -0.175904,-0.58033 -0.231505,-0.652058 -0.05564,-0.07172 -0.192089,-0.830301 -0.303262,-1.685723 -0.111172,-0.855431 -0.526298,-1.794381 -0.922511,-2.086573 -0.396231,-0.292182 -0.618996,-0.832415 -0.495039,-1.200506 0.123948,-0.36809 0.05096,-1.0723 -0.162154,-1.564922 -0.213137,-0.492613 -0.338751,-1.401404 -0.279174,-2.019533 0.05964,-0.618128 -0.144021,-1.279873 -0.452486,-1.470559 -0.308465,-0.190666 -0.430775,-0.557149 -0.271826,-0.814388 0.158949,-0.257239 -0.215339,-1.456469 -0.831734,-2.664965 -0.616384,-1.208486 -1.219516,-3.035764 -1.340297,-4.0606 -0.12078,-1.024845 -0.312421,-2.68494 -0.425874,-3.689099 -0.113453,-1.004168 -0.251052,-1.943117 -0.305766,-2.086563 -0.05466,-0.143455 -0.06343,-0.461587 -0.01939,-0.706967 0.04404,-0.245371 -0.181799,-0.761711 -0.501821,-1.147419 -0.320041,-0.385708 -0.538109,-1.358636 -0.484564,-2.162063 0.05359,-0.803435 0.06207,-1.578155 0.019,-1.72161 -0.04307,-0.143446 3.132953,-2.295316 3.073922,-4.662368 -0.07542,-3.025038 -1.064904,-4.629709 -0.63139,-4.629565 -1.481278,-1.33654 -0.705847,-1.43156 -1.168009,-2.179501 -0.178856,-0.289469 -0.135329,-0.526865 0.09676,-0.527547 0.23206,-6.94e-4 1.116822,-1.350429 1.966163,-2.999437 0.849312,-1.649008 1.846747,-3.185915 2.216484,-3.415347 0.369756,-0.229434 0.672278,-0.728853 0.672278,-1.109819 0,-0.380969 0.336937,-0.972371 0.74877,-1.314227 0.411813,-0.341858 0.887763,-1.254571 1.057664,-2.028252 0.169892,-0.773681 1.115,-2.286799 2.100245,-3.362487 1.169879,-1.277257 1.676874,-2.254218 1.46135,-2.815963 -0.221273,-0.576791 -0.128985,-0.73591 0.280158,-0.482992 0.530996,0.328247 0.825224,-0.226534 0.694992,-1.310481 -0.02124,-0.17709 0.546079,-0.87146 1.260803,-1.543044 L 83.065572,26.340493 93.68963,16.175027 c 1.038654,0.559465 2.413494,-0.910076 2.537325,-0.436472 0.123811,0.473606 12.721625,-12.2361306 13.573385,-12.065742 0.85176,0.1703876 0.58905,0.7844988 1.04959,1.2451443 0.71284,0.7129826 -4.72576,-1.5466179 1.30616,-1.7570906 7.11689,-0.248337 0.25662,10.0355113 1.28842,9.3896413 0.65883,-0.412398 -3.16992,19.534237 -1.72648,22.227951 1.21175,2.26136 1.31405,3.255205 0.33506,3.255205 -0.3862,0 -1.45568,0.375982 -2.37664,0.835517 -0.92096,0.459532 -2.1225,0.718328 -2.6701,0.575098 -0.59141,-0.154692 -1.47921,0.20012 -2.18675,0.873934 -0.6551,0.623896 -2.07118,1.785478 -3.14684,2.581295 -1.07565,0.795818 -1.955733,1.787101 -1.955733,2.202855 0,0.415753 -0.352022,0.755916 -0.782281,0.755916 -0.430279,0 -0.782291,0.44436 -0.782291,0.987472 0,0.543109 -0.378673,1.132807 -0.841478,1.31044 -0.533714,0.204853 -0.7423,0.702202 -0.570342,1.359912 0.149097,0.57032 0.03099,1.036945 -0.262434,1.036945 -0.293439,0 -0.41078,0.469477 -0.260757,1.043282 0.150033,0.573805 0.03498,1.043283 -0.255719,1.043283 -0.290691,0 -0.393426,0.352107 -0.228328,0.782461 0.165127,0.430352 0.120264,0.782461 -0.09967,0.782461 -0.219938,0 -0.388592,1.877275 -0.374784,4.171723 0.01384,2.294448 0.201102,4.172357 0.416237,4.173127 0.215144,8.18e-4 0.391155,0.470883 0.391155,1.044685 0,0.573812 0.234681,1.043281 0.521533,1.043281 0.286833,0 0.521524,0.264577 0.521524,0.587951 0,1.191668 3.672378,8.073073 5.201498,9.746664 0.86811,0.950136 1.57837,2.182515 1.57837,2.738612 0,0.556097 0.23973,1.011086 0.53271,1.011086 0.29299,0 0.82104,0.642315 1.17343,1.427363 0.35241,0.785039 1.05144,1.841368 1.55341,2.347389 0.50198,0.506011 0.91268,1.372726 0.91268,1.926036 0,0.553319 0.29336,1.316219 0.65191,1.69534 0.95997,1.015043 4.56339,8.472082 4.56339,9.443636 0,0.458956 0.23468,0.979534 0.52152,1.156851 0.28684,0.177317 0.52152,0.751187 0.52152,1.275264 0,0.524077 0.34901,1.62523 0.77557,2.447007 0.42657,0.82178 0.65171,1.88519 0.50032,2.36311 -0.15139,0.47794 -0.031,1.01995 0.26749,1.20449 0.29851,0.18452 0.55071,0.8498 0.56044,1.47841 0.01,0.62859 0.47115,2.08186 1.02537,3.22946 0.55421,1.14761 1.01562,2.56249 1.02536,3.14419 0.01,0.5817 0.39366,1.59453 0.85319,2.25072 0.45951,0.65619 0.75287,1.24725 0.65191,1.31347 -0.10098,0.0663 -2.71648,1.26215 -5.81225,2.65764 -7.0068,3.15848 -0.23168,-3.53262 5.81225,-2.65764 2.29177,0.33177 0.28077,2.46233 1.08826,2.77608 0.80749,0.31376 -0.67465,0 0,0 1.05242,0 2.44805,4.51622 2.93588,6.79135 0.31272,1.45851 3.92684,-12.88877 2.16073,14.46862 -0.15879,0.25701 0.26643,-15.27439 0.59562,-14.65913 0.32921,0.61526 5.23937,11.36838 5.36456,14.56051 0.12522,3.19212 3.85932,10.48873 4.15474,11.99085 0.29543,1.50211 -10.54992,-0.96278 -10.71486,-0.69583 -0.16496,0.26695 -0.0495,1.14406 0.25647,1.94911 0.30602,0.80505 0.65619,2.97368 0.77815,4.81917 0.14053,2.12635 0.53725,3.70413 1.08305,4.30736 0.50339,0.55636 0.86128,1.83313 0.86128,3.07261 0,1.8195 0.21793,2.23341 1.53455,2.9144 0.88157,0.45598 1.8749,1.61136 2.33438,2.71523 0.43991,1.05684 0.96296,2.03887 1.16236,2.18232 0.28776,0.20704 4.88101,12.95867 5.22035,15.21958 0.0411,0.27428 -3.77046,-5.34035 -4.91782,-5.00454 -3.63159,1.06286 -11.21287,4.92345 -11.21287,5.70987 0,0.80359 11.25083,0.45288 15.48492,0.93203 1.49301,0.16897 -5.29356,-0.51667 -4.09722,-0.0945 1.19635,0.42218 4.98564,-6.00362 5.95352,-6.00362 2.29197,0 -1.14036,9.65833 -3.39032,11.71489 l -1.69497,1.54928 v 8.59306 c 0,4.72619 0.17602,8.59319 0.39115,8.59332 0.21513,1.3e-4 0.39344,0.41106 0.39624,0.91314 0.008,1.33061 2.54779,6.57879 3.42104,7.06759 0.41035,0.22969 0.7461,0.84378 0.7461,1.36465 0,0.52086 0.46937,1.54385 1.04306,2.27331 0.57368,0.72949 1.04305,1.5792 1.04305,1.88826 0,0.30907 0.70407,1.70645 1.5646,3.10528 1.45103,2.35872 1.56458,2.90403 1.56458,7.51335 v 4.97005 l -3.42574,2.14839 c -4.45035,2.79097 -4.45468,3.90467 -0.0218,5.6185 4.94543,1.91201 5.07088,2.12085 4.89897,8.15432 l -0.14756,5.17906 2.86841,10.28585 c 1.26337,4.53026 -10.20796,-2.30247 -10.95527,-1.40183 -0.51922,0.62575 -6.1202,-1.62197 -4.9741,-1.18615 0.76695,0.29167 2.28843,0.53029 3.38105,0.53029 1.09263,0 2.94968,0.33986 4.12676,0.75524 1.17708,0.4154 3.52147,0.91158 5.20974,1.10264 l 3.06959,0.34735 v 2.01847 c 0,1.11017 0.23341,2.31585 0.51873,2.6793 0.99923,1.27287 2.23116,5.82464 2.23116,8.24372 v 2.4415 l -3.78111,0.63499 c -5.32701,0.89463 -19.11398,1.0253 -18.78861,0.17805 z"
       id="path4081"
       inkscape:connector-curvature="0"
       sodipodi:nodetypes="cscccsssssscsccscccsscsssscssscssscscsccccccccccssscscccscccscccccccccccccccccsssscccccccccccscsccccccccccscsssccssssccscscsccssssssscscsssccccscccsccscccccccscscccccscssscscccssscscccscsscscccscscscc"
       inkscape:export-xdpi="96"
       inkscape:export-ydpi="96" />
  </g>
</svg>
